<?xml version="1.0" encoding="UTF-8"?>
<svg version="1.1" xmlns="http://www.w3.org/2000/svg" width="600" height="457">
<path d="M0 0 C198 0 396 0 600 0 C600 150.81 600 301.62 600 457 C402 457 204 457 0 457 C0 306.19 0 155.38 0 0 Z " fill="#FCFCFC" transform="translate(0,0)"/>
<path d="M0 0 C16.83 0 33.66 0 51 0 C52.94965865 7.44579016 54.89181021 14.89282404 56.81665039 22.3449707 C57.47108222 24.87012455 58.12949241 27.3942513 58.79223633 29.91723633 C68.41614048 66.5842383 68.41614048 66.5842383 68 82 C68.66 82 69.32 82 70 82 C70.02578125 81.42636719 70.0515625 80.85273438 70.078125 80.26171875 C71.18985621 63.61101729 76.10099717 47.26098261 80.06103516 31.10693359 C82.12012488 22.69878338 84.12038146 14.28363627 85.89648438 5.81030273 C86.89937853 1.10062147 86.89937853 1.10062147 88 0 C104.5 0 121 0 138 0 C138 42.9 138 85.8 138 130 C126.78 130 115.56 130 104 130 C104.12094436 123.74177283 104.24404401 117.48365766 104.37231445 111.22558594 C104.4151921 109.10386527 104.45689195 106.98212042 104.49731445 104.86035156 C104.88361341 84.65834662 104.88361341 84.65834662 105.53125 75.5 C106.07522914 67.64963443 106.11332799 59.8666096 106.0625 52 C106.0574616 50.62760585 106.05290294 49.25520985 106.04882812 47.8828125 C106.03722841 44.58849208 106.02091091 41.29427216 106 38 C98.75972145 65.81307745 98.75972145 65.81307745 92.13183594 93.77636719 C89.37863511 105.92747526 86.17067429 117.95143771 83 130 C73.76 130 64.52 130 55 130 C50.55359279 112.94555811 46.1228 95.9043645 42.25292969 78.70800781 C39.1525292 65.06020874 35.55227884 51.53571791 32 38 C31.94310314 48.81305687 32.10076048 59.60211356 32.4375 70.41015625 C32.48257763 71.917509 32.52741291 73.42486901 32.57202148 74.93223572 C32.68837335 78.8470171 32.80735062 82.76171358 32.92712402 86.6763916 C33.11935068 92.97028502 33.30797161 99.2642863 33.49563599 105.55831718 C33.56108322 107.73797191 33.62798188 109.91757842 33.69506836 112.09718323 C33.73555813 113.43986888 33.7760063 114.78255578 33.81640625 116.12524414 C33.85193604 117.28721817 33.88746582 118.4491922 33.92407227 119.64637756 C34.00219146 123.09679363 34 126.54869972 34 130 C22.78 130 11.56 130 0 130 C0 87.1 0 44.2 0 0 Z " fill="#0D0E1E" transform="translate(309,93)"/>
<path d="M0 0 C27.72 0 55.44 0 84 0 C84 8.25 84 16.5 84 25 C68.16 25 52.32 25 36 25 C36 32.92 36 40.84 36 49 C50.52 49 65.04 49 80 49 C80 57.58 80 66.16 80 75 C65.48 75 50.96 75 36 75 C36 84.57 36 94.14 36 104 C51.84 104 67.68 104 84 104 C84 112.58 84 121.16 84 130 C56.28 130 28.56 130 0 130 C0 87.1 0 44.2 0 0 Z " fill="#0C0E1D" transform="translate(202,93)"/>
<path d="M0 0 C11.88 0 23.76 0 36 0 C36 42.9 36 85.8 36 130 C24.12 130 12.24 130 0 130 C0 87.1 0 44.2 0 0 Z " fill="#0C0D1D" transform="translate(141,93)"/>
<path d="M0 0 C4.5103982 0.18898702 4.5103982 0.18898702 8.94238281 -0.49291992 C26.51403057 -4.82328447 44.43030489 1.44461574 60.4375 8 C78.37497632 15.34537992 94.66949983 17.79901426 114 19 C112.38695349 22.22609302 109.24197491 22.8773161 106 24 C83.9948356 31.0607122 62.69617794 23.22426034 42.58056641 14.60644531 C31.17248269 9.27353578 31.17248269 9.27353578 19 7 C20.52367187 7.81791016 20.52367187 7.81791016 22.078125 8.65234375 C34.80367817 15.58170083 46.91084132 23.44209722 57 34 C57 34.66 57 35.32 57 36 C53.27263693 36.35250019 49.71873724 36.49795057 46 36 C43.4375 33.5 43.4375 33.5 42.3359375 31.8359375 C34.83955883 21.53389664 17.12848859 12.18895605 5 9 C-0.12137972 9.27947502 -4.19778498 11.26875316 -8.6875 13.5625 C-9.38866943 13.91747559 -10.08983887 14.27245117 -10.81225586 14.63818359 C-16.99550678 17.84976568 -22.5695078 21.63022163 -28 26 C-28.69996094 26.55945313 -29.39992188 27.11890625 -30.12109375 27.6953125 C-33.61234156 30.57515028 -33.61234156 30.57515028 -36.33203125 34.15625 C-38 36 -38 36 -40.69921875 36.390625 C-41.68535156 36.34421875 -42.67148438 36.2978125 -43.6875 36.25 C-44.68136719 36.21390625 -45.67523438 36.1778125 -46.69921875 36.140625 C-47.45847656 36.09421875 -48.21773437 36.0478125 -49 36 C-43.33731189 22.37221212 -23.30320609 13.59100326 -11 7 C-21.89568615 9.06642323 -31.99053487 13.13304881 -42.1730957 17.41601562 C-60.72975829 25.18049329 -81.17808369 30.68743801 -100.85546875 23.16796875 C-103.00234248 21.99872422 -104.32348317 20.75142821 -106 19 C-105.14172607 18.94054199 -105.14172607 18.94054199 -104.26611328 18.87988281 C-82.45397684 17.30352158 -63.80575078 12.95991462 -43.75 4.3125 C-30.31891124 -1.23901669 -14.33566805 -3.69693983 0 0 Z " fill="#F40A0F" transform="translate(296,279)"/>
<path d="M0 0 C0.33 0 0.66 0 1 0 C2.07515675 16.41405977 -1.60588135 32.61093542 -12.13671875 45.64453125 C-14.36229325 48.16483379 -16.65393014 50.59197407 -19 53 C-19.5878125 53.63808594 -20.175625 54.27617187 -20.78125 54.93359375 C-25.27607718 59.69344611 -30.38813276 63.62467217 -36 67 C-36.66 67 -37.32 67 -38 67 C-38.03665771 66.10063721 -38.07331543 65.20127441 -38.11108398 64.2746582 C-38.57542178 55.37303287 -39.81223317 46.94190988 -41.64056396 38.21606445 C-44.16475232 26.08038904 -45.93264003 14.43520039 -45 2 C-34.14107788 10.28747979 -29.48663045 22.54898796 -27.609375 35.74609375 C-27.36276748 37.82603349 -27.17393944 39.91272674 -27 42 C-26.55011719 41.030625 -26.10023438 40.06125 -25.63671875 39.0625 C-18.94476496 24.98742134 -10.45200517 11.62575977 0 0 Z " fill="#F6070C" transform="translate(538,152)"/>
<path d="M0 0 C3.86779076 3.68692284 7.10927714 7.55707175 10.25 11.875 C10.72308594 12.52412354 11.19617187 13.17324707 11.68359375 13.84204102 C14.97710618 18.42856611 18.07032241 23.11077636 21 27.9375 C21.36125977 28.52708496 21.72251953 29.11666992 22.09472656 29.72412109 C24.62159148 33.99344499 26.35597145 38.31965623 28 43 C28.10957031 42.02160156 28.21914062 41.04320312 28.33203125 40.03515625 C29.86643804 27.02345314 32.59504341 13.02378203 43.23046875 4.140625 C44.14441406 3.43421875 45.05835938 2.7278125 46 2 C46.65585439 14.55232433 44.82990083 26.13887971 42.48291016 38.44189453 C40.69144262 47.93178173 39.5993097 57.36373081 39 67 C33.44890202 65.01955555 29.52876022 61.67458125 25 58 C23.989375 57.236875 22.97875 56.47375 21.9375 55.6875 C8.87990431 43.74118905 0.6231731 26.95617903 -0.16796875 9.23828125 C-0.18465891 6.15060255 -0.13832732 3.08418696 0 0 Z " fill="#F6070C" transform="translate(52,152)"/>
<path d="M0 0 C0.66 0 1.32 0 2 0 C4.51278761 7.7700383 5.79444261 15.5769724 6.8215332 23.65332031 C7.59424795 29.37738375 8.98548748 34.58721999 11 40 C11.51046875 39.34515625 12.0209375 38.6903125 12.546875 38.015625 C16.89265531 32.56028376 21.38000488 27.42640937 26.3125 22.5 C26.81555664 21.99629883 27.31861328 21.49259766 27.83691406 20.97363281 C34.91441954 14 34.91441954 14 38 14 C39.90666756 17.81333513 39.56702803 21.85324959 39 26 C36.22823693 33.78452607 30.74997409 39.94434448 25.54833984 46.21240234 C21.16496805 51.57289792 17.78727253 57.17566205 14.5234375 63.26953125 C13 66 13 66 11 68 C5.35366781 60.71995748 0.70258936 53.44584734 -3 45 C-3.41507813 44.07832031 -3.83015625 43.15664062 -4.2578125 42.20703125 C-8.74581095 30.8301121 -8.85779114 17.48432345 -4.16796875 6.1640625 C-2.94770091 3.903098 -1.6872548 1.93967875 0 0 Z " fill="#F6080D" transform="translate(65,107)"/>
<path d="M0 0 C0.66 0 1.32 0 2 0 C3.21875 1.5390625 3.21875 1.5390625 4.5 3.625 C5.13421875 4.63433594 5.13421875 4.63433594 5.78125 5.6640625 C10.90016981 15.47532547 10.1969974 27.70614722 7.4375 38.1875 C4.03126058 48.64694188 -0.85705883 58.57499247 -8 67 C-11 66 -11 66 -12.21875 63.98828125 C-12.6415625 63.10527344 -13.064375 62.22226563 -13.5 61.3125 C-16.06367381 56.3838371 -19.02934458 52.17833283 -22.5 47.875 C-30.85032661 37.49882131 -37.75490689 28.89587876 -37 15 C-32.13522713 15 -30.67202308 16.63356971 -27.375 19.8125 C-26.85373535 20.30298828 -26.3324707 20.79347656 -25.79541016 21.29882812 C-19.76487372 27.04917261 -13.62933567 33.0559965 -9 40 C-6.29764983 31.96080071 -4.77846789 23.85150027 -3.375 15.5 C-2.94804817 12.98911662 -2.51849872 10.4786731 -2.0859375 7.96875 C-1.9007959 6.86982422 -1.7156543 5.77089844 -1.52490234 4.63867188 C-1 2 -1 2 0 0 Z " fill="#F6080C" transform="translate(524,107)"/>
<path d="M0 0 C7.05697433 6.30127277 8.15096588 17.44948229 9.9375 26.25 C12.46648204 38.15578078 15.42153268 49.11636203 21 60 C2.37338569 59.51789939 -16.7463697 49.76354429 -30 37 C-37.72231188 28.83372245 -43.496491 19.01543959 -46 8 C-44.25 8.1875 -44.25 8.1875 -42 9 C-41.41992188 9.73992187 -40.83984375 10.47984375 -40.2421875 11.2421875 C-37.75944032 14.29588003 -34.98706689 16.57577862 -31.875 18.9375 C-30.63140485 19.89569634 -29.38792105 20.85403721 -28.14453125 21.8125 C-27.48018066 22.32167969 -26.81583008 22.83085937 -26.13134766 23.35546875 C-23.84907135 25.11645537 -21.5855082 26.89965496 -19.32421875 28.6875 C-17.73699277 29.93751728 -16.14975336 31.1875175 -14.5625 32.4375 C-13.81790527 33.02845459 -13.07331055 33.61940918 -12.30615234 34.22827148 C-8.03501048 37.57363209 -3.78297837 40.4352145 1 43 C0.79503906 42.443125 0.59007812 41.88625 0.37890625 41.3125 C0.10949219 40.549375 -0.15992188 39.78625 -0.4375 39 C-0.70433594 38.2575 -0.97117188 37.515 -1.24609375 36.75 C-3.07065291 30.09461321 -3.20621449 23.29540599 -3.25 16.4375 C-3.270625 15.62603516 -3.29125 14.81457031 -3.3125 13.97851562 C-3.34757224 8.54670314 -2.47162097 4.84567795 0 0 Z " fill="#F6090D" transform="translate(103,192)"/>
<path d="M0 0 C0.66 0.33 1.32 0.66 2 1 C3.67290703 6.38522368 4.35569525 11.41588419 4.3125 17.0625 C4.31048584 17.78767822 4.30847168 18.51285645 4.30639648 19.26000977 C4.16712207 26.93844988 3.46642685 36.06714629 0 43 C15.20474325 32.69760441 29.89004387 21.63927371 43.44140625 9.21484375 C45 8 45 8 47 8 C41.8062267 25.60112061 31.17065486 40.03895794 15.04443359 49.09863281 C4.58591541 54.65572575 -7.91042927 60.54539417 -20 60 C-19.68546875 59.34515625 -19.3709375 58.6903125 -19.046875 58.015625 C-13.49442816 46.17486486 -10.45837962 34.60323473 -7.93457031 21.81933594 C-4.37282609 4.37282609 -4.37282609 4.37282609 0 0 Z " fill="#F50A0F" transform="translate(487,192)"/>
<path d="M0 0 C0.66 0 1.32 0 2 0 C3.04859042 15.54244027 -1.33395185 26.00871959 -11 38 C-11.74121094 38.928125 -12.48242188 39.85625 -13.24609375 40.8125 C-13.82488281 41.534375 -14.40367187 42.25625 -15 43 C-14.195625 42.65388672 -14.195625 42.65388672 -13.375 42.30078125 C-8.24504858 40.16611397 -3.0864725 38.36882821 2.23046875 36.75390625 C8.23585099 34.90648101 14.18486399 32.93243972 20.11328125 30.8515625 C20.86970917 30.58701767 21.62613708 30.32247284 22.40548706 30.0499115 C25.50533521 28.96452167 28.60422771 27.87671744 31.69897461 26.77685547 C34.00097191 25.96026939 36.30667712 25.15502673 38.61328125 24.3515625 C39.3131868 24.09960114 40.01309235 23.84763977 40.73420715 23.58804321 C45.65921728 21.88640576 45.65921728 21.88640576 49 23 C34.4485536 39.06023692 13.90283486 50.35160326 -8 52 C-11.70971596 52.13089839 -15.41330678 52.1400271 -19.125 52.125 C-20.56939453 52.13080078 -20.56939453 52.13080078 -22.04296875 52.13671875 C-26.80770774 52.13016478 -31.31577938 51.99362256 -36 51 C-35.26910156 50.29101562 -34.53820312 49.58203125 -33.78515625 48.8515625 C-23.76197946 38.58940393 -16.50163333 26.12725743 -9 14 C-7.30233593 11.26397058 -5.59343767 8.53551908 -3.875 5.8125 C-3.32573853 4.92123413 -3.32573853 4.92123413 -2.76538086 4.01196289 C-1.89704679 2.63932791 -0.95558229 1.31339001 0 0 Z " fill="#F40B10" transform="translate(462,224)"/>
<path d="M0 0 C0.66 0 1.32 0 2 0 C3.13818359 1.45849609 3.13818359 1.45849609 4.3984375 3.5234375 C4.87176514 4.28849609 5.34509277 5.05355469 5.83276367 5.84179688 C6.34170166 6.67775391 6.85063965 7.51371094 7.375 8.375 C8.46052909 10.12345895 9.54781447 11.87082855 10.63671875 13.6171875 C11.19407715 14.51276367 11.75143555 15.40833984 12.32568359 16.33105469 C23.79425956 34.71848602 23.79425956 34.71848602 38 51 C13.7503581 55.17745932 -10.7443879 51.30908435 -31.09765625 37.1875 C-37.0420583 32.70719697 -42.58780757 28.01698309 -47 22 C-39.5955237 24.16181845 -32.27968403 26.54238473 -24.97265625 29.01171875 C-22.6947185 29.77686254 -20.41672201 30.5418315 -18.13867188 31.30664062 C-14.5806388 32.50302276 -11.0230951 33.70080441 -7.46655273 34.90161133 C-4.01158517 36.06731658 -0.55478346 37.2274368 2.90234375 38.38671875 C3.97105209 38.74916183 5.03976044 39.11160492 6.14085388 39.48503113 C7.12940872 39.81570084 8.11796356 40.14637054 9.13647461 40.48706055 C10.00566025 40.78001511 10.87484589 41.07296967 11.77037048 41.37480164 C14.09549384 42.13499558 14.09549384 42.13499558 17 42 C16.43152344 41.44054687 15.86304688 40.88109375 15.27734375 40.3046875 C5.73254533 30.39339432 -0.21825165 19.64264885 -0.0625 5.625 C-0.05347656 4.56539062 -0.04445312 3.50578125 -0.03515625 2.4140625 C-0.02355469 1.61742187 -0.01195312 0.82078125 0 0 Z " fill="#F50A0F" transform="translate(127,224)"/>
<path d="M0 0 C-0.13578101 7.46795528 -2.67218141 11.80258257 -8 17 C-13.01050349 20.76503548 -18.1243417 23.80458255 -24 26 C-1.24343474 29.98239892 20.22561801 29.82739912 43 26 C39.6939173 30.38388988 37.37405912 32.75944771 32.125 34.75 C31.06925781 35.1521875 30.01351562 35.554375 28.92578125 35.96875 C2.13450693 45.41186939 -28.89929985 39.60278898 -54 28 C-54 27.34 -54 26.68 -54 26 C-53.44763672 25.79955078 -52.89527344 25.59910156 -52.32617188 25.39257812 C-35.08247206 19.09227024 -19.46421078 11.85858653 -4.03515625 1.90625 C-1 0 -1 0 0 0 Z " fill="#F50B0F" transform="translate(431,253)"/>
<path d="M0 0 C4.83160507 2.60566236 9.56338922 5.33421056 14.23632812 8.21606445 C26.57393015 15.78672071 39.28278422 21.41350412 53 26 C53 26.66 53 27.32 53 28 C44.50885313 31.79457845 36.02384244 34.74644703 27 37 C25.82308594 37.30164063 24.64617187 37.60328125 23.43359375 37.9140625 C4.52312943 42.13391585 -18.49086546 42.83164519 -35.93359375 33.40625 C-38.9930372 31.32420909 -40.88915911 29.02553861 -43 26 C-40.93728361 26.3110685 -38.87483534 26.62391516 -36.8125 26.9375 C-35.66394531 27.11152344 -34.51539062 27.28554688 -33.33203125 27.46484375 C-31.4157444 27.77261784 -29.50256296 28.10868116 -27.60644531 28.52294922 C-23.07831198 29.35172147 -18.52909122 29.19075184 -13.9375 29.1875 C-12.35340332 29.18737915 -12.35340332 29.18737915 -10.73730469 29.18725586 C0.38543314 29.10804596 12.19321086 28.87309044 23 26 C22.28714844 25.63648438 21.57429688 25.27296875 20.83984375 24.8984375 C12.70905861 20.63059604 5.36229911 16.38903676 1 8 C0.42264456 5.29915082 0.19094444 2.76869431 0 0 Z " fill="#F5090E" transform="translate(160,253)"/>
<path d="M0 0 C6.8571607 3.04762698 11.23230453 7.70430993 14.08984375 14.6484375 C15.20744795 18.76390705 15.38197476 22.50367938 15.375 26.75 C15.37693359 27.97843628 15.37693359 27.97843628 15.37890625 29.23168945 C15.22945347 38.11309097 13.28674753 46.45532286 11 55 C6.16872901 53.4890969 3.07356074 50.74135672 -0.625 47.4375 C-1.86862547 46.34372469 -3.11343033 45.25128897 -4.359375 44.16015625 C-5.28073242 43.35215576 -5.28073242 43.35215576 -6.22070312 42.52783203 C-8.70693747 40.39297274 -11.29230604 38.39137699 -13.875 36.375 C-20.51030547 30.98259098 -27.02952583 24.16880397 -30 16 C-30.1875 12.625 -30.1875 12.625 -30 10 C-28 9 -28 9 -26.36328125 9.50390625 C-14.46426156 15.64606689 -4.46266919 26.7799075 4 37 C3.40428054 34.52306118 2.73542168 32.08513281 2.02734375 29.63671875 C-4.03018648 8.06037297 -4.03018648 8.06037297 0 0 Z " fill="#F5090E" transform="translate(502,78)"/>
<path d="M0 0 C4.50431932 9.00863863 -0.29393329 22.06584846 -3 31 C-3.42893476 32.64267874 -3.84850976 34.28789882 -4.25 35.9375 C-4.4975 36.948125 -4.745 37.95875 -5 39 C-4.46632813 38.32195312 -3.93265625 37.64390625 -3.3828125 36.9453125 C17.41433503 10.9668687 17.41433503 10.9668687 29 9 C29.75077148 16.20740621 28.35485549 20.2818854 24 26 C23.401875 26.845625 22.80375 27.69125 22.1875 28.5625 C16.59896592 34.78972369 9.73483789 39.96916079 3.3125 45.3125 C2.57966797 45.93189453 1.84683594 46.55128906 1.09179688 47.18945312 C-5.52556874 52.68502908 -5.52556874 52.68502908 -10 54 C-15.03417698 41.41455754 -17.59536951 27.11590536 -14.16015625 13.7265625 C-11.85120993 8.67331299 -6.16598273 0 0 0 Z " fill="#F5070B" transform="translate(89,78)"/>
<path d="M0 0 C9.24 0 18.48 0 28 0 C28 2.31 28 4.62 28 7 C25.03 7 22.06 7 19 7 C19 9.97 19 12.94 19 16 C21.64 16 24.28 16 27 16 C27 18.64 27 21.28 27 24 C24.36 24 21.72 24 19 24 C19 27.63 19 31.26 19 35 C21.97 35 24.94 35 28 35 C28 37.64 28 40.28 28 43 C23.71 43 19.42 43 15 43 C14.67 41.02 14.34 39.04 14 37 C13.67 38.98 13.34 40.96 13 43 C8.71 43 4.42 43 0 43 C0 28.81 0 14.62 0 0 Z " fill="#E6E8ED" transform="translate(272,330)"/>
<path d="M0 0 C3.3 0 6.6 0 10 0 C11.65 6.93 13.3 13.86 15 21 C15.33 14.07 15.66 7.14 16 0 C16.99 0 17.98 0 19 0 C19 13.86 19 27.72 19 42 C18.01 42 17.02 42 16 42 C14.35 36.06 12.7 30.12 11 24 C10.67 30.27 10.34 36.54 10 43 C4 44 4 44 0 43 C0 28.81 0 14.62 0 0 Z " fill="#26293B" transform="translate(249,330)"/>
<path d="M0 0 C3.51469381 0.74780719 4.77487432 1.79695103 6.9375 4.625 C6.9375 5.285 6.9375 5.945 6.9375 6.625 C7.37320312 6.191875 7.80890625 5.75875 8.2578125 5.3125 C13.11574773 0.77001511 13.11574773 0.77001511 17.125 0.0625 C20.45980966 0.72946193 21.64705483 1.09068698 23.9375 3.625 C24.59276637 6.84165651 24.63479241 10.03744194 24.6875 13.3125 C24.71714844 14.20517578 24.74679687 15.09785156 24.77734375 16.01757812 C24.84801427 18.22014277 24.90071939 20.42165131 24.9375 22.625 C23.9475 22.625 22.9575 22.625 21.9375 22.625 C21.9375 21.965 21.9375 21.305 21.9375 20.625 C20.9475 21.285 19.9575 21.945 18.9375 22.625 C16.89453125 22.8203125 16.89453125 22.8203125 14.75 22.75 C13.491875 22.70875 12.23375 22.6675 10.9375 22.625 C10.6075 21.635 10.2775 20.645 9.9375 19.625 C9.42960937 19.92535156 8.92171875 20.22570312 8.3984375 20.53515625 C5.01102755 22.40647823 2.60323425 23.59939484 -1.3125 23.75 C-5.28101437 22.12651685 -6.28577004 20.52013875 -8.0625 16.625 C-8.78838284 12.43930174 -8.96300041 8.56394983 -7.14453125 4.6484375 C-5.06439935 1.80761011 -3.43573529 0.70117047 0 0 Z " fill="#EDEFF2" transform="translate(250.0625,390.375)"/>
<path d="M0 0 C2.75 0.5625 2.75 0.5625 4.15625 2.171875 C10.27362924 11.63247313 10.05355249 23.97492551 8.18359375 34.859375 C7.03934964 38.90916042 6.0747166 41.83238007 2.75 44.5625 C0.25 45 0.25 45 -2.25 44.5625 C-8.26583941 38.54666059 -7.61623642 30.65036889 -7.625 22.75 C-7.64949219 21.59951172 -7.67398438 20.44902344 -7.69921875 19.26367188 C-7.72350156 12.2014227 -7.03250223 7.5695773 -3.25 1.5625 C-2.25 0.5625 -2.25 0.5625 0 0 Z " fill="#1C1E30" transform="translate(167.25,328.4375)"/>
<path d="M0 0 C1.65 0 3.3 0 5 0 C5.13277344 1.19238281 5.26554687 2.38476562 5.40234375 3.61328125 C5.58055983 5.17970678 5.75895456 6.74611198 5.9375 8.3125 C6.02451172 9.09818359 6.11152344 9.88386719 6.20117188 10.69335938 C6.28818359 11.45068359 6.37519531 12.20800781 6.46484375 12.98828125 C6.543396 13.68477783 6.62194824 14.38127441 6.70288086 15.09887695 C6.97996783 17.21648234 6.97996783 17.21648234 8 20 C8.66 13.4 9.32 6.8 10 0 C11.98 0 13.96 0 16 0 C16 14.19 16 28.38 16 43 C14.68 43 13.36 43 12 43 C11.67 39.7 11.34 36.4 11 33 C10.34 35.97 9.68 38.94 9 42 C8.01 42 7.02 42 6 42 C5.34 36.72 4.68 31.44 4 26 C3.67 31.61 3.34 37.22 3 43 C2.01 43 1.02 43 0 43 C0 28.81 0 14.62 0 0 Z " fill="#101324" transform="translate(493,330)"/>
<path d="M0 0 C0.99 0.33 1.98 0.66 3 1 C2.34 1 1.68 1 1 1 C1.66 2.32 2.32 3.64 3 5 C3.66 4.01 4.32 3.02 5 2 C5.12375 2.804375 5.2475 3.60875 5.375 4.4375 C5.684375 5.7059375 5.684375 5.7059375 6 7 C6.66 7.33 7.32 7.66 8 8 C8 6.02 8 4.04 8 2 C7.34 2 6.68 2 6 2 C6 1.34 6 0.68 6 0 C25.8 0 45.6 0 66 0 C66 0.66 66 1.32 66 2 C65.34 2 64.68 2 64 2 C64 7.28 64 12.56 64 18 C63.34 17.67 62.68 17.34 62 17 C62 14.36 62 11.72 62 9 C60.68 9 59.36 9 58 9 C57.67 9.66 57.34 10.32 57 11 C56.34 10.34 55.68 9.68 55 9 C55 8.01 55 7.02 55 6 C57.31 6 59.62 6 62 6 C62 4.68 62 3.36 62 2 C58.7 2 55.4 2 52 2 C52 7.28 52 12.56 52 18 C51.34 17.67 50.68 17.34 50 17 C50 12.05 50 7.1 50 2 C48.68 2 47.36 2 46 2 C46 7.28 46 12.56 46 18 C45.34 17.67 44.68 17.34 44 17 C43.375 14.9375 43.375 14.9375 43 13 C41.35 13 39.7 13 38 13 C38.61875 12.67 39.2375 12.34 39.875 12 C43.01584125 9.04391412 43.17558202 6.19079141 44 2 C40.04 2 36.08 2 32 2 C32 7.28 32 12.56 32 18 C31.34 17.67 30.68 17.34 30 17 C30 12.05 30 7.1 30 2 C28.68 2 27.36 2 26 2 C26 3.32 26 4.64 26 6 C24.02 6 22.04 6 20 6 C20.34444881 8.47266765 20.34444881 8.47266765 21 11 C21.66 11.33 22.32 11.66 23 12 C23 11.34 23 10.68 23 10 C24.32 10 25.64 10 27 10 C27.33 12.97 27.66 15.94 28 19 C27.67 18.34 27.34 17.68 27 17 C26.443125 17.515625 25.88625 18.03125 25.3125 18.5625 C23 20 23 20 20.25 19.6875 C19.5075 19.460625 18.765 19.23375 18 19 C18 18.01 18 17.02 18 16 C15.525 15.505 15.525 15.505 13 15 C13.33 13.35 13.66 11.7 14 10 C15.32 10.33 16.64 10.66 18 11 C18 11.99 18 12.98 18 14 C18.66 13.67 19.32 13.34 20 13 C19.34 12.01 18.68 11.02 18 10 C17.6875 7.4375 17.6875 7.4375 18 5 C18.99 4.34 19.98 3.68 21 3 C15.555 2.505 15.555 2.505 10 2 C10 6.95 10 11.9 10 17 C9.34 17 8.68 17 8 17 C7.67 15.35 7.34 13.7 7 12 C5.824375 13.2375 5.824375 13.2375 4.625 14.5 C2 17 2 17 0 17 C1.29299694 14.11562221 2.65941363 12.12780579 5 10 C1.10540926 9.78918149 1.10540926 9.78918149 -2 11 C-1.835 10.0925 -1.67 9.185 -1.5 8.25 C-0.89862854 4.88912497 -0.89862854 4.88912497 -1 1 C-0.67 0.67 -0.34 0.34 0 0 Z " fill="#101225" transform="translate(205,242)"/>
<path d="M0 0 C1.65 0 3.3 0 5 0 C6.14654482 2.29308963 6.19729117 3.79909656 6.31640625 6.3515625 C6.35830078 7.20234375 6.40019531 8.053125 6.44335938 8.9296875 C6.48267578 9.81914062 6.52199219 10.70859375 6.5625 11.625 C6.60568359 12.5221875 6.64886719 13.419375 6.69335938 14.34375 C6.79956861 16.56234283 6.90161194 18.7810488 7 21 C7.66 21 8.32 21 9 21 C8.979375 19.72125 8.95875 18.4425 8.9375 17.125 C8.9375 4.125 8.9375 4.125 11 0 C12.65 0 14.3 0 16 0 C16 14.19 16 28.38 16 43 C15.01 43 14.02 43 13 43 C12.67 36.07 12.34 29.14 12 22 C11.34 28.93 10.68 35.86 10 43 C8.68 43 7.36 43 6 43 C5.34 36.4 4.68 29.8 4 23 C3.67 29.6 3.34 36.2 3 43 C2.01 43 1.02 43 0 43 C0 28.81 0 14.62 0 0 Z " fill="#202339" transform="translate(390,330)"/>
<path d="M0 0 C12.97286446 4.35102255 23.64884553 10.55731286 30.25 22.9375 C32.68273603 28.15774607 34 33.20277803 34 39 C20.23117029 32.5951736 5.73904957 17.20649976 0 3 C0 2.01 0 1.02 0 0 Z " fill="#F40B10" transform="translate(463,58)"/>
<path d="M0 0 C-2.56812609 14.44570924 -17.96427941 27.98148075 -29.00390625 36.671875 C-31 38 -31 38 -33 38 C-33.69338319 28.63932688 -30.91879531 21.85977741 -24.8125 14.75 C-18.96961707 8.64892093 -9.02936021 0 0 0 Z " fill="#F40A0F" transform="translate(128,58)"/>
<path d="M0 0 C3.3 0 6.6 0 10 0 C13.32095576 4.42794102 13.43018475 6.83258955 13.3125 12.0625 C13.31572266 12.78244141 13.31894531 13.50238281 13.32226562 14.24414062 C13.28374156 18.01599709 13.13773952 19.79339072 11 23 C10.34 23 9.68 23 9 23 C9.46019531 23.83789062 9.92039062 24.67578125 10.39453125 25.5390625 C12.07733291 29.16670792 12.9117732 32.45942664 13.6875 36.375 C13.93886719 37.62023437 14.19023437 38.86546875 14.44921875 40.1484375 C14.63097656 41.08945312 14.81273437 42.03046875 15 43 C13.35 43 11.7 43 10 43 C8.68 37.06 7.36 31.12 6 25 C5.01 25 4.02 25 3 25 C3 30.94 3 36.88 3 43 C2.01 43 1.02 43 0 43 C0 28.81 0 14.62 0 0 Z " fill="#131526" transform="translate(303,330)"/>
<path d="M0 0 C2.4375 0.375 2.4375 0.375 5 1 C6.3974093 3.79481859 6.13211589 6.13324019 6.125 9.25 C6.12757813 10.36890625 6.13015625 11.4878125 6.1328125 12.640625 C6.00608539 15.84607544 5.6008965 18.85244689 5 22 C6.32 22.66 7.64 23.32 9 24 C8.98839844 24.72445313 8.97679687 25.44890625 8.96484375 26.1953125 C8.9045784 32.37507016 8.9045784 32.37507016 9.625 38.5 C10 41 10 41 8 44 C7.505 42.515 7.505 42.515 7 41 C6.34 41 5.68 41 5 41 C4.67 41.99 4.34 42.98 4 44 C1.6875 44.3125 1.6875 44.3125 -1 44 C-2.75 41.625 -2.75 41.625 -4 39 C-4.33 38.34 -4.66 37.68 -5 37 C-5.14832685 35.25430713 -5.22128283 33.50174763 -5.25 31.75 C-5.27578125 30.81671875 -5.3015625 29.8834375 -5.328125 28.921875 C-5 26 -5 26 -3.48828125 23.18359375 C-1.55599364 19.05022262 -1.73249479 15.79553849 -1.9375 11.3125 C-2.25420842 3.38131263 -2.25420842 3.38131263 0 0 Z " fill="#191B2D" transform="translate(371,329)"/>
<path d="M0 0 C2.9375 0.0625 2.9375 0.0625 6 1 C9.33871638 4.78387857 9.288291 8.09905297 9 13 C8.01 13.33 7.02 13.66 6 14 C5.01 12.02 4.02 10.04 3 8 C-0.11785113 8.64644661 -0.11785113 8.64644661 -1 11 C-1.24049626 14.64058786 -1.18519282 18.28984819 -1.1875 21.9375 C-1.19974609 22.95263672 -1.21199219 23.96777344 -1.22460938 25.01367188 C-1.22654297 25.98755859 -1.22847656 26.96144531 -1.23046875 27.96484375 C-1.23457764 28.8580835 -1.23868652 29.75132324 -1.24291992 30.67163086 C-1.15406978 33.27304194 -1.15406978 33.27304194 1 36 C2.98 35.505 2.98 35.505 5 35 C5.33 32.69 5.66 30.38 6 28 C4.68 28 3.36 28 2 28 C2 25.69 2 23.38 2 21 C4.64 21 7.28 21 10 21 C10.1358035 23.71003427 10.23444624 26.41318941 10.3125 29.125 C10.35439453 29.88554687 10.39628906 30.64609375 10.43945312 31.4296875 C10.52885312 35.57784717 10.28458528 38.20762795 7.640625 41.51171875 C5 44 5 44 2.4375 44.6875 C-1.14213378 43.6778597 -2.08805482 42.16459891 -4 39 C-5.85118133 32.94219156 -6.36538139 27.3771173 -6.375 21.0625 C-6.39949219 20.22009766 -6.42398437 19.37769531 -6.44921875 18.50976562 C-6.47800326 12.27791971 -5.15315461 7.39968625 -2 2 C-1.34 1.34 -0.68 0.68 0 0 Z " fill="#1E2132" transform="translate(348,329)"/>
<path d="M0 0 C2.90597379 0.50854541 3.76406779 1.09399151 5.5 3.4375 C6.6577506 6.91075181 6.56866652 9.79817448 6.5 13.4375 C5.51 13.7675 4.52 14.0975 3.5 14.4375 C3.2525 13.633125 3.005 12.82875 2.75 12 C1.77761141 9.266419 1.77761141 9.266419 -0.625 8.625 C-1.24375 8.563125 -1.8625 8.50125 -2.5 8.4375 C-3.83188292 13.09277957 -3.68406496 17.62844837 -3.6875 22.4375 C-3.69974609 23.33984375 -3.71199219 24.2421875 -3.72460938 25.171875 C-3.72654297 26.04328125 -3.72847656 26.9146875 -3.73046875 27.8125 C-3.73457764 28.60398437 -3.73868652 29.39546875 -3.74291992 30.2109375 C-3.47405224 32.67533271 -2.7296427 34.30291094 -1.5 36.4375 C0.48 35.9425 0.48 35.9425 2.5 35.4375 C2.83 33.1275 3.16 30.8175 3.5 28.4375 C2.51 28.4375 1.52 28.4375 0.5 28.4375 C0.5 26.1275 0.5 23.8175 0.5 21.4375 C2.81 21.4375 5.12 21.4375 7.5 21.4375 C7.63539281 24.33490622 7.73426829 27.22595621 7.8125 30.125 C7.85439453 30.94162109 7.89628906 31.75824219 7.93945312 32.59960938 C8.02951183 37.0485095 7.95952851 38.84559076 5.140625 42.4765625 C2.5 44.4375 2.5 44.4375 -0.0625 45.125 C-2.5 44.4375 -2.5 44.4375 -4.6875 42 C-9.76765042 32.01487675 -10.20108966 19.4720348 -7.1875 8.75 C-5.87697966 4.73523133 -4.45657502 0.77990063 0 0 Z " fill="#1B1E30" transform="translate(238.5,328.5625)"/>
<path d="M0 0 C4.29 0 8.58 0 13 0 C13 2.31 13 4.62 13 7 C10.03 7 7.06 7 4 7 C4 9.97 4 12.94 4 16 C6.64 16 9.28 16 12 16 C12 18.64 12 21.28 12 24 C9.36 24 6.72 24 4 24 C4 27.63 4 31.26 4 35 C6.97 35 9.94 35 13 35 C13 37.64 13 40.28 13 43 C8.71 43 4.42 43 0 43 C0 28.81 0 14.62 0 0 Z " fill="#232637" transform="translate(477,330)"/>
<path d="M0 0 C4.29 0 8.58 0 13 0 C13 2.31 13 4.62 13 7 C10.03 7 7.06 7 4 7 C4 9.97 4 12.94 4 16 C6.64 16 9.28 16 12 16 C12 18.64 12 21.28 12 24 C9.36 24 6.72 24 4 24 C4 27.63 4 31.26 4 35 C6.97 35 9.94 35 13 35 C13 37.64 13 40.28 13 43 C8.71 43 4.42 43 0 43 C0 28.81 0 14.62 0 0 Z " fill="#222537" transform="translate(287,330)"/>
<path d="M0 0 C4.29 0 8.58 0 13 0 C13 2.31 13 4.62 13 7 C10.03 7 7.06 7 4 7 C4 9.97 4 12.94 4 16 C6.64 16 9.28 16 12 16 C12 18.64 12 21.28 12 24 C9.36 24 6.72 24 4 24 C4 27.63 4 31.26 4 35 C6.97 35 9.94 35 13 35 C13 37.64 13 40.28 13 43 C8.71 43 4.42 43 0 43 C0 28.81 0 14.62 0 0 Z " fill="#232538" transform="translate(138,330)"/>
<path d="M0 0 C1.65 0.33 3.3 0.66 5 1 C5.71987111 5.55203602 6.43164123 10.10524146 7.13623047 14.65966797 C7.37656996 16.20590581 7.61904381 17.75181358 7.86376953 19.29736328 C8.21701209 21.53072134 8.56232745 23.76519004 8.90625 26 C9.07030334 27.02081665 9.07030334 27.02081665 9.2376709 28.06225586 C9.95212184 32.77331951 10.09273092 37.25217693 10 42 C9.01 42 8.02 42 7 42 C6.67 39.03 6.34 36.06 6 33 C3.69 33 1.38 33 -1 33 C-1.33 36.3 -1.66 39.6 -2 43 C-3.32 43 -4.64 43 -6 43 C-5.33300737 34.46841834 -4.22930967 26.02959306 -3 17.5625 C-2.82210938 16.31017578 -2.64421875 15.05785156 -2.4609375 13.76757812 C-1.01559507 3.72029101 -1.01559507 3.72029101 0 0 Z " fill="#1F2234" transform="translate(447,330)"/>
<path d="M0 0 C1.32 0 2.64 0 4 0 C5.65 6.93 7.3 13.86 9 21 C9.33 14.07 9.66 7.14 10 0 C10.99 0 11.98 0 13 0 C13 14.19 13 28.38 13 43 C11.68 42.67 10.36 42.34 9 42 C7.35 34.41 5.7 26.82 4 19 C3.67 26.92 3.34 34.84 3 43 C2.01 43 1.02 43 0 43 C0 28.81 0 14.62 0 0 Z " fill="#171A2C" transform="translate(426,330)"/>
<path d="M0 0 C1.32 0 2.64 0 4 0 C4.86189525 4.99754065 5.71612822 9.99631017 6.56347656 14.99633789 C6.85242048 16.69493379 7.14340662 18.39318367 7.43652344 20.09106445 C7.85897585 22.5402826 8.27391853 24.99067648 8.6875 27.44140625 C8.81874268 28.19273331 8.94998535 28.94406036 9.08520508 29.71815491 C9.83486313 34.21280368 10.12607326 38.44297692 10 43 C8.68 42.67 7.36 42.34 6 42 C6 39.03 6 36.06 6 33 C3.36 33 0.72 33 -2 33 C-1.979375 34.27875 -1.95875 35.5575 -1.9375 36.875 C-1.875 40.75 -1.875 40.75 -3 43 C-3.99 43 -4.98 43 -6 43 C-5.61047598 34.52449464 -4.65435472 26.39736962 -3.09106445 18.07226562 C-2.20490582 13.31838811 -1.55876081 8.61327511 -1.2109375 3.78515625 C-1 2 -1 2 0 0 Z " fill="#1E2133" transform="translate(414,330)"/>
<path d="M0 0 C1.32 0 2.64 0 4 0 C5.65 6.6 7.3 13.2 9 20 C9.33 13.4 9.66 6.8 10 0 C10.99 0 11.98 0 13 0 C13 14.19 13 28.38 13 43 C12.01 43 11.02 43 10 43 C9.37346016 40.52121375 8.74874328 38.04199014 8.125 35.5625 C7.95097656 34.87478516 7.77695313 34.18707031 7.59765625 33.47851562 C6.30530864 28.33305753 5.15193416 23.18370373 4 18 C3.67 26.25 3.34 34.5 3 43 C2.01 43 1.02 43 0 43 C0 28.81 0 14.62 0 0 Z " fill="#1B1E31" transform="translate(214,330)"/>
<path d="M0 0 C1.32 0 2.64 0 4 0 C5.65 7.26 7.3 14.52 9 22 C9.33 14.74 9.66 7.48 10 0 C10.99 0 11.98 0 13 0 C13 14.19 13 28.38 13 43 C11.68 43 10.36 43 9 43 C7.35 35.41 5.7 27.82 4 20 C3.67 27.59 3.34 35.18 3 43 C2.01 43 1.02 43 0 43 C0 28.81 0 14.62 0 0 Z " fill="#151729" transform="translate(41,330)"/>
<path d="M0 0 C1.32 0 2.64 0 4 0 C4.81706167 3.0404598 5.6278202 6.08256683 6.4375 9.125 C6.66759766 9.9809375 6.89769531 10.836875 7.13476562 11.71875 C7.46831055 12.97558594 7.46831055 12.97558594 7.80859375 14.2578125 C8.01282959 15.0223877 8.21706543 15.78696289 8.42749023 16.57470703 C9.08385151 19.35521573 9.5303239 22.18194338 10 25 C10.33 16.75 10.66 8.5 11 0 C11.66 0 12.32 0 13 0 C13 13.86 13 27.72 13 42 C12.01 42 11.02 42 10 42 C9.35220924 39.60468067 8.70670991 37.20878252 8.0625 34.8125 C7.88009766 34.13896484 7.69769531 33.46542969 7.50976562 32.77148438 C6.54834047 29.18799061 5.72857749 25.64288744 5 22 C4.67 28.93 4.34 35.86 4 43 C2.68 43 1.36 43 0 43 C0 28.81 0 14.62 0 0 Z " fill="#232639" transform="translate(527,330)"/>
<path d="M0 0 C1.32 0 2.64 0 4 0 C5.65 7.59 7.3 15.18 9 23 C9.33 15.41 9.66 7.82 10 0 C10.99 0 11.98 0 13 0 C13 14.19 13 28.38 13 43 C11.68 43 10.36 43 9 43 C7.35 35.41 5.7 27.82 4 20 C3.67 27.59 3.34 35.18 3 43 C2.01 43 1.02 43 0 43 C0 28.81 0 14.62 0 0 Z " fill="#121527" transform="translate(326,330)"/>
<path d="M0 0 C2.72184601 0.95264611 3.7213965 1.64548294 5.5 3.875 C6.01171875 6.13671875 6.01171875 6.13671875 6.1875 8.5625 C6.28611328 9.77486328 6.28611328 9.77486328 6.38671875 11.01171875 C6.42410156 11.62660156 6.46148437 12.24148438 6.5 12.875 C5.51 13.205 4.52 13.535 3.5 13.875 C2.51 11.895 1.52 9.915 0.5 7.875 C-2.62467613 8.54147867 -2.62467613 8.54147867 -3.671875 10.98046875 C-6.02721754 19.21305752 -5.13692374 28.79942104 -2.5 36.875 C0.05690423 35.79244593 0.05690423 35.79244593 2.5 33.875 C3.39207179 30.7792893 3.39207179 30.7792893 3.5 27.875 C2.18 27.875 0.86 27.875 -0.5 27.875 C-0.5 25.565 -0.5 23.255 -0.5 20.875 C1.81 20.875 4.12 20.875 6.5 20.875 C6.60829314 23.77184158 6.68743954 26.66461019 6.75 29.5625 C6.80027344 30.78743164 6.80027344 30.78743164 6.8515625 32.03710938 C6.91798524 36.13871374 6.82139099 38.33196005 4.6875 41.9375 C2.5 43.875 2.5 43.875 -0.75 44.1875 C-1.6575 44.084375 -2.565 43.98125 -3.5 43.875 C-4.15357278 42.64993102 -4.79748233 41.41970484 -5.4375 40.1875 C-5.79714844 39.50300781 -6.15679687 38.81851563 -6.52734375 38.11328125 C-8.84187431 32.78707237 -8.71424486 27.33688354 -8.75 21.625 C-8.770625 20.81675781 -8.79125 20.00851562 -8.8125 19.17578125 C-8.85295489 12.85470404 -8.20274608 6.16458643 -4.05175781 1.11230469 C-2.5 -0.125 -2.5 -0.125 0 0 Z " fill="#141627" transform="translate(467.5,329.125)"/>
<path d="M0 0 C1.32 0 2.64 0 4 0 C4 2.97 4 5.94 4 9 C5.0725 8.7525 6.145 8.505 7.25 8.25 C11 8 11 8 13.375 9.75 C16.52107773 14.10610763 16.77736726 18.80577333 16 24 C14.65648682 26.84917451 13.50127465 27.8793541 11 30 C7.8125 30.375 7.8125 30.375 5 30 C4.34 30 3.68 30 3 30 C2.01 30 1.02 30 0 30 C0 20.1 0 10.2 0 0 Z " fill="#35384B" transform="translate(478,383)"/>
<path d="M0 0 C3.96 0 7.92 0 12 0 C12 2.31 12 4.62 12 7 C9.03 7 6.06 7 3 7 C3 10.3 3 13.6 3 17 C5.97 17 8.94 17 12 17 C12 19.31 12 21.62 12 24 C9.36 24 6.72 24 4 24 C4 27.63 4 31.26 4 35 C6.97 35 9.94 35 13 35 C13 37.64 13 40.28 13 43 C8.71 43 4.42 43 0 43 C0 28.81 0 14.62 0 0 Z " fill="#1C1E2F" transform="translate(512,330)"/>
<path d="M0 0 C2.625 0.3125 2.625 0.3125 4.4375 1.75 C6.20134638 5.55619483 5.86316637 9.18428296 5.625 13.3125 C4.635 13.3125 3.645 13.3125 2.625 13.3125 C2.295 11.3325 1.965 9.3525 1.625 7.3125 C0.635 7.6425 -0.355 7.9725 -1.375 8.3125 C-1.96161468 11.55856681 -1.96161468 11.55856681 -1.375 15.3125 C0.26914281 17.1800776 1.99592804 18.57591158 3.99609375 20.05078125 C5.625 21.3125 5.625 21.3125 6.625 23.3125 C6.74862239 25.58082709 6.80060648 27.85333787 6.8125 30.125 C6.82667969 31.34832031 6.84085938 32.57164062 6.85546875 33.83203125 C6.5597114 38.29846856 5.8062361 41.1312639 2.625 44.3125 C0.1875 44.6875 0.1875 44.6875 -2.375 44.3125 C-5.964606 40.722894 -6.35530197 37.49438176 -6.4375 32.5625 C-6.416875 31.49 -6.39625 30.4175 -6.375 29.3125 C-5.385 29.3125 -4.395 29.3125 -3.375 29.3125 C-2.715 31.6225 -2.055 33.9325 -1.375 36.3125 C-0.385 36.3125 0.605 36.3125 1.625 36.3125 C3.11605779 33.33038442 3.13494661 31.62715295 2.625 28.3125 C0.97415045 26.59682652 -0.81267053 25.20074983 -2.68359375 23.73046875 C-5.71550326 21.18870627 -6.23753808 18.82712667 -6.5859375 14.98828125 C-6.79371151 9.64209606 -6.33886985 5.93613697 -3.375 1.3125 C-2.375 0.3125 -2.375 0.3125 0 0 Z " fill="#1B1D2F" transform="translate(63.375,328.6875)"/>
<path d="M0 0 C15.51 0 31.02 0 47 0 C47 6.27 47 12.54 47 19 C48.98 21.97 48.98 21.97 51 25 C50.01 24.67 49.02 24.34 48 24 C47.505 23.01 47.505 23.01 47 22 C46.34 21.855625 45.68 21.71125 45 21.5625 C44.34 21.376875 43.68 21.19125 43 21 C41.64984141 16.94952424 42.37915002 14.2079832 43 10 C41.68 9.67 40.36 9.34 39 9 C40.32 9 41.64 9 43 9 C43 6.69 43 4.38 43 2 C41.35 2 39.7 2 38 2 C38 3.98 38 5.96 38 8 C37.67 8 37.34 8 37 8 C37 6.02 37 4.04 37 2 C35.35 2 33.7 2 32 2 C32 6.95 32 11.9 32 17 C31.34 17 30.68 17 30 17 C30 14.36 30 11.72 30 9 C28.68 9 27.36 9 26 9 C25.67 9.66 25.34 10.32 25 11 C24.34 9.68 23.68 8.36 23 7 C24 6 24 6 27.0625 5.9375 C28.5165625 5.9684375 28.5165625 5.9684375 30 6 C30 4.68 30 3.36 30 2 C26.7 2 23.4 2 20 2 C20 7.28 20 12.56 20 18 C19.34 17.67 18.68 17.34 18 17 C18 12.05 18 7.1 18 2 C16.68 2 15.36 2 14 2 C14 7.28 14 12.56 14 18 C13.34 18 12.68 18 12 18 C12 14.7 12 11.4 12 8 C10.35 8 8.7 8 7 8 C7.99 9.485 7.99 9.485 9 11 C8.66666667 13 8.33333333 15 8 17 C8.66 17.99 9.32 18.98 10 20 C7.04590299 18.62845496 4.55991624 17.01136276 2 15 C2.33 14.01 2.66 13.02 3 12 C4.32 12.66 5.64 13.32 7 14 C6.525625 13.21625 6.05125 12.4325 5.5625 11.625 C4.66101977 10.11051322 3.78820515 8.5764103 3 7 C5.97 7 8.94 7 12 7 C12 5.35 12 3.7 12 2 C8.04 2 4.08 2 0 2 C0 1.34 0 0.68 0 0 Z " fill="#14172A" transform="translate(347,242)"/>
<path d="M0 0 C0.99 0 1.98 0 3 0 C3 9.9 3 19.8 3 30 C-6 31 -6 31 -9 29.25 C-12.4931502 25.32020603 -12.28415894 21.46488724 -12.2109375 16.44921875 C-11.92934313 13.17959521 -11.29396696 11.37043252 -9 9 C-3.90909091 7.54545455 -3.90909091 7.54545455 -1 9 C-0.67 6.03 -0.34 3.06 0 0 Z " fill="#1A1C2F" transform="translate(426,383)"/>
<path d="M0 0 C0.99 0 1.98 0 3 0 C3.02505615 0.95366455 3.0501123 1.9073291 3.07592773 2.88989258 C3.17012071 6.42909107 3.27031231 9.96809875 3.37231445 13.50708008 C3.41561833 15.03861018 3.45729667 16.57018715 3.49731445 18.10180664 C3.55512732 20.30369182 3.61878969 22.50534211 3.68359375 24.70703125 C3.70866249 25.73374687 3.70866249 25.73374687 3.73423767 26.78120422 C3.8273555 29.77120104 4.04687437 32.14062311 5 35 C5.99 35.33 6.98 35.66 8 36 C8.33 24.12 8.66 12.24 9 0 C10.32 0 11.64 0 13 0 C13.07453636 4.85633035 13.12878329 9.71232268 13.16479492 14.5690918 C13.17981806 16.21889044 13.2002426 17.86864958 13.22631836 19.51831055 C13.26298899 21.89902536 13.27979103 24.27920908 13.29296875 26.66015625 C13.30845261 27.38960953 13.32393646 28.11906281 13.33988953 28.87062073 C13.34153692 33.96125802 12.30938437 37.45169943 10 42 C9 43 9 43 5.9375 43.0625 C4.968125 43.041875 3.99875 43.02125 3 43 C-0.07343137 37.9024287 -0.40754531 34.07999216 -0.29296875 28.3203125 C-0.28872391 27.50754852 -0.28447906 26.69478455 -0.28010559 25.85739136 C-0.26340804 23.27958041 -0.22577362 20.7025718 -0.1875 18.125 C-0.17244158 16.36980301 -0.1587552 14.61459369 -0.14648438 12.859375 C-0.11353392 8.57261087 -0.06181453 4.28644114 0 0 Z " fill="#1F2235" transform="translate(108,330)"/>
<path d="M0 0 C0.99 0 1.98 0 3 0 C3 9.9 3 19.8 3 30 C1.68 29.67 0.36 29.34 -1 29 C-1.33 29.33 -1.66 29.66 -2 30 C-5.65141162 30.48685488 -7.37117779 30.46334268 -10.375 28.25 C-12.87307141 23.25385719 -12.74895787 18.47722725 -12 13 C-10.3125 9.75 -10.3125 9.75 -8 8 C-5.375 7.5625 -5.375 7.5625 -3 8 C-2.34 8.66 -1.68 9.32 -1 10 C-0.67 6.7 -0.34 3.4 0 0 Z " fill="#1B1E30" transform="translate(217,383)"/>
<path d="M0 0 C3.96 0 7.92 0 12 0 C12 2.31 12 4.62 12 7 C9.03 7 6.06 7 3 7 C3 10.3 3 13.6 3 17 C5.97 17 8.94 17 12 17 C12 19.31 12 21.62 12 24 C9.03 24 6.06 24 3 24 C3 27.96 3 31.92 3 36 C5.97 36 8.94 36 12 36 C12 38.31 12 40.62 12 43 C8.04 43 4.08 43 0 43 C0 28.81 0 14.62 0 0 Z " fill="#121424" transform="translate(199,330)"/>
<path d="M0 0 C3.96 0 7.92 0 12 0 C12 2.31 12 4.62 12 7 C9.03 7 6.06 7 3 7 C3 10.3 3 13.6 3 17 C5.64 17 8.28 17 11 17 C11 19.31 11 21.62 11 24 C8.36 24 5.72 24 3 24 C3 27.96 3 31.92 3 36 C5.97 36 8.94 36 12 36 C12 38.31 12 40.62 12 43 C8.04 43 4.08 43 0 43 C0 28.81 0 14.62 0 0 Z " fill="#101222" transform="translate(272,330)"/>
<path d="M0 0 C3.22743264 3.31018733 4.25646484 6.04416424 4.4375 10.5625 C4.24864007 14.4308723 3.56375911 16.97842676 1 20 C-1.38219081 21.74693992 -2.54474533 22.02276273 -5.5 21.875 C-8.54808218 20.80817124 -9.95867549 19.47875119 -12 17 C-13.24067966 13.27796101 -13.54711324 9.86626692 -13 6 C-9.44626602 -0.51517897 -7.30333756 -1.8887942 0 0 Z " fill="#26283B" transform="translate(307,392)"/>
<path d="M0 0 C0.99 0.66 1.98 1.32 3 2 C3.29264518 4.54438193 3.3962265 6.84179258 3.36328125 9.38671875 C3.36377975 10.12195267 3.36427826 10.85718658 3.36479187 11.61470032 C3.36244882 13.17406915 3.35270661 14.73344158 3.33618164 16.29272461 C3.31276209 18.66099598 3.31559698 21.02812798 3.32226562 23.39648438 C3.31668262 24.91406913 3.30956885 26.43164917 3.30078125 27.94921875 C3.30214836 29.00117683 3.30214836 29.00117683 3.30354309 30.0743866 C3.23722064 34.76204932 2.44403191 38.58957658 1 43 C0.67 43 0.34 43 0 43 C0 40.69 0 38.38 0 36 C-2.97 36 -5.94 36 -9 36 C-9 32.04 -9 28.08 -9 24 C-6.03 24 -3.06 24 0 24 C0 21.69 0 19.38 0 17 C-2.97 17 -5.94 17 -9 17 C-9 13.7 -9 10.4 -9 7 C-6.03 7 -3.06 7 0 7 C0 4.69 0 2.38 0 0 Z " fill="#EFF0F3" transform="translate(211,330)"/>
<path d="M0 0 C0.66 0 1.32 0 2 0 C2 9.57 2 19.14 2 29 C0.68 29 -0.64 29 -2 29 C-3.175625 29.0825 -4.35125 29.165 -5.5625 29.25 C-9 29 -9 29 -10.875 27.1875 C-13.27005905 22.53044074 -13.77872477 18.14483334 -13 13 C-11.63824838 10.21999254 -10.42235425 9.09937368 -8 7 C-4.20905038 6.27791436 -3.26798549 6.821343 0 9 C0 6.03 0 3.06 0 0 Z " fill="#181B2C" transform="translate(167,384)"/>
<path d="M0 0 C2.79633636 2.2227289 3.83122807 3.83202154 4.34375 7.37890625 C4.52123438 12.34107372 4.31333709 16.04948269 1 20 C-2.12860495 21.56430248 -4.55602925 21.35627284 -8 21 C-11.56398402 17.52980504 -12.84629367 14.62928706 -13.3125 9.6875 C-12.94446535 5.34469118 -11.71485449 3.35364378 -9 0 C-5.77839187 -1.61080407 -3.42436421 -0.82657067 0 0 Z " fill="#212437" transform="translate(148,392)"/>
<path d="M0 0 C4.27280216 0.97918383 5.5809731 1.98781179 8 5.6875 C8.8653123 11.13520523 8.90275373 15.91671384 6.375 20.875 C3.39394829 23.15001315 1.76592407 23.84121119 -2 23.6875 C-5.24828162 21.01669067 -7.73549458 18.78842874 -8.2734375 14.515625 C-8.44603111 10.13440269 -8.57683071 6.68226038 -5.875 3.0625 C-3 0.6875 -3 0.6875 0 0 Z " fill="#212437" transform="translate(403,390.3125)"/>
<path d="M0 0 C4.16984666 1.36467709 5.41174883 2.23555776 7.4375 6.125 C8.35389371 11.77956573 7.62881177 16.27893398 4.4375 21.125 C1.4375 23.125 1.4375 23.125 -1.5 23.0625 C-4.5625 22.125 -4.5625 22.125 -6.9375 20.3125 C-9.4673828 15.35003759 -9.41975735 10.57685592 -8.5625 5.125 C-5.98294325 0.98207552 -4.87455093 0.17103687 0 0 Z " fill="#1D1F32" transform="translate(385.5625,390.875)"/>
<path d="M0 0 C3.4375 1.125 3.4375 1.125 5.875 3 C8.21868151 7.68736301 8.17707534 11.9864922 7.4375 17.125 C5.9375 20.3125 5.9375 20.3125 3.4375 22.125 C0.47763631 22.72650147 -1.46604697 22.51820039 -4.5625 22.125 C-7.23681489 20.31336733 -7.52170359 19.24738923 -8.5625 16.125 C-9.14618622 10.73841001 -9.45870354 6.53719952 -6.5 1.875 C-3.5625 0.125 -3.5625 0.125 0 0 Z " fill="#16192B" transform="translate(125.5625,390.875)"/>
<path d="M0 0 C3.4375 1.125 3.4375 1.125 5.875 3 C8.21868151 7.68736301 8.17707534 11.9864922 7.4375 17.125 C5.9375 20.3125 5.9375 20.3125 3.4375 22.125 C0.47763631 22.72650147 -1.46604697 22.51820039 -4.5625 22.125 C-7.23681489 20.31336733 -7.52170359 19.24738923 -8.5625 16.125 C-9.14618622 10.73841001 -9.45870354 6.53719952 -6.5 1.875 C-3.5625 0.125 -3.5625 0.125 0 0 Z " fill="#1B1E30" transform="translate(467.5625,390.875)"/>
<path d="M0 0 C0.66 0 1.32 0 2 0 C2 2.31 2 4.62 2 7 C6.455 6.505 6.455 6.505 11 6 C11 13.59 11 21.18 11 29 C8.03 29 5.06 29 2 29 C-1 26 -1 26 -1.34057617 24.09887695 C-1.32486572 23.40238037 -1.30915527 22.70588379 -1.29296875 21.98828125 C-1.28330078 21.23095703 -1.27363281 20.47363281 -1.26367188 19.69335938 C-1.23853516 18.90767578 -1.21339844 18.12199219 -1.1875 17.3125 C-1.17396484 16.51521484 -1.16042969 15.71792969 -1.14648438 14.89648438 C-1.11117089 12.93070033 -1.05736447 10.96526418 -1 9 C-1.66 9 -2.32 9 -3 9 C-3 8.01 -3 7.02 -3 6 C-2.34 6 -1.68 6 -1 6 C-1.0309375 4.7934375 -1.0309375 4.7934375 -1.0625 3.5625 C-1 1 -1 1 0 0 Z " fill="#EFF1F6" transform="translate(280,385)"/>
<path d="M0 0 C3.96 0 7.92 0 12 0 C12 2.31 12 4.62 12 7 C9.36 7 6.72 7 4 7 C4 10.3 4 13.6 4 17 C6.31 17 8.62 17 11 17 C11 19.64 11 22.28 11 25 C8.69 25 6.38 25 4 25 C4 30.94 4 36.88 4 43 C2.68 43 1.36 43 0 43 C0 28.81 0 14.62 0 0 Z " fill="#25283D" transform="translate(178,330)"/>
<path d="M0 0 C3.38186376 1.9427728 4.70264591 2.99357079 5.8125 6.75 C5.874375 7.4925 5.93625 8.235 6 9 C5.01 9 4.02 9 3 9 C2.401875 8.175 1.80375 7.35 1.1875 6.5 C-0.78907328 3.68029497 -0.78907328 3.68029497 -4.0625 3.625 C-7.05457456 3.91066457 -7.05457456 3.91066457 -10 5 C-11.28771857 8.21557469 -11.16608383 11.57341231 -11.1875 15 C-11.20167969 16.03125 -11.21585937 17.0625 -11.23046875 18.125 C-11.00041251 20.99485407 -10.57370433 22.61459554 -9 25 C-5.20640675 26.89679663 -0.95604392 26.21724428 3 25 C3 22.69 3 20.38 3 18 C0.69 18 -1.62 18 -4 18 C-4 17.01 -4 16.02 -4 15 C-0.37 15 3.26 15 7 15 C7.27643219 18.87005062 7.50399918 22.19261491 7 26 C3.79130449 29.63089229 0.67281562 30.2922165 -4 30.6875 C-7.03946273 30.58205861 -8.5220718 30.37022607 -10.94140625 28.49609375 C-15.47942292 23.25823837 -16.29573734 19.63767379 -16.21484375 12.76171875 C-15.83606725 7.892719 -14.05427878 5.14464554 -10.8125 1.625 C-7.09219776 -0.52450796 -4.20088214 -0.84017643 0 0 Z " fill="#242739" transform="translate(367,383)"/>
<path d="M0 0 C2.63877763 1.40289443 3.92992249 2.72291474 6 5 C6 6.32 6 7.64 6 9 C5.01 9 4.02 9 3 9 C2.71125 8.360625 2.4225 7.72125 2.125 7.0625 C1.17176549 4.84793921 1.17176549 4.84793921 -1 4 C-4.71128487 3.51591937 -6.35924581 3.51100338 -9.375 5.8125 C-11.76769379 10.50586089 -11.66770332 14.82918124 -11 20 C-9.82755696 22.54878922 -8.93702622 24.06297378 -7 26 C-1.62204686 26.36548454 -1.62204686 26.36548454 3 24 C3.81584568 20.94091587 3.81584568 20.94091587 4 18 C1.69 18 -0.62 18 -3 18 C-3 17.01 -3 16.02 -3 15 C0.3 15 3.6 15 7 15 C7.47572777 18.77278549 7.67430901 22.24388808 7 26 C4.32403748 29.3519218 1.06747089 30.73164455 -3.13671875 31.27734375 C-7.18463306 31.10000655 -8.97564936 30.02329191 -11.875 27.25 C-15.36992285 21.90482387 -16.97461966 17.46576947 -16 11 C-14.67772349 7.18311936 -12.90825927 4.03801059 -10.25 1 C-6.81133651 -0.52829488 -3.63684839 -0.75245139 0 0 Z " fill="#212436" transform="translate(107,383)"/>
<path d="M0 0 C1.98 0 3.96 0 6 0 C6.33 14.52 6.66 29.04 7 44 C4.69 43.67 2.38 43.34 0 43 C0 28.81 0 14.62 0 0 Z " fill="#F1F4F8" transform="translate(249,330)"/>
<path d="M0 0 C1.98 0 3.96 0 6 0 C6 14.19 6 28.38 6 43 C4.68 43 3.36 43 2 43 C1.67 39.7 1.34 36.4 1 33 C0.67 33 0.34 33 0 33 C-0.33 31.35 -0.66 29.7 -1 28 C-1.66 28 -2.32 28 -3 28 C-2.01 18.76 -1.02 9.52 0 0 Z " fill="#303448" transform="translate(503,330)"/>
<path d="M0 0 C2.14453125 0.9140625 2.14453125 0.9140625 4 3 C4.65350167 6.21714957 4.69728941 9.41225535 4.75 12.6875 C4.77964844 13.58017578 4.80929687 14.47285156 4.83984375 15.39257812 C4.91051427 17.59514277 4.96321939 19.79665131 5 22 C4.01 22 3.02 22 2 22 C2 21.34 2 20.68 2 20 C1.01 20.66 0.02 21.32 -1 22 C-3.80590236 22.42783066 -6.1233315 22.22830702 -9 22 C-11.31282587 18.53076119 -11.42478586 17.07794425 -11 13 C-9.37177622 10.81693563 -8.41387168 10.09363936 -5.73828125 9.48828125 C-4.93777344 9.43027344 -4.13726562 9.37226563 -3.3125 9.3125 C-2.10013672 9.21388672 -2.10013672 9.21388672 -0.86328125 9.11328125 C-0.24839844 9.07589844 0.36648438 9.03851563 1 9 C0.34 7.35 -0.32 5.7 -1 4 C-3.41619823 3.74969023 -3.41619823 3.74969023 -6 4 C-6.99 5.485 -6.99 5.485 -8 7 C-8.66 7 -9.32 7 -10 7 C-9.6875 4.625 -9.6875 4.625 -9 2 C-5.51131349 -0.32579101 -4.10281481 -0.41865457 0 0 Z " fill="#1D2033" transform="translate(270,391)"/>
<path d="M0 0 C4.29 0 8.58 0 13 0 C13 2.31 13 4.62 13 7 C11.68 7 10.36 7 9 7 C9 18.88 9 30.76 9 43 C7.68 43 6.36 43 5 43 C5 31.12 5 19.24 5 7 C3.35 7 1.7 7 0 7 C0 4.69 0 2.38 0 0 Z " fill="#23273B" transform="translate(92,330)"/>
<path d="M0 0 C5.61 0 11.22 0 17 0 C17 1.32 17 2.64 17 4 C12.38 4 7.76 4 3 4 C3 6.97 3 9.94 3 13 C7.29 13 11.58 13 16 13 C16 13.99 16 14.98 16 16 C11.71 16 7.42 16 3 16 C3 19.63 3 23.26 3 27 C7.95 27 12.9 27 18 27 C18 27.99 18 28.98 18 30 C12.06 30 6.12 30 0 30 C0 20.1 0 10.2 0 0 Z " fill="#151729" transform="translate(184,383)"/>
<path d="M0 0 C1.32 0 2.64 0 4 0 C6.53258507 4.46274384 6.33163938 8.35282792 6.3125 13.375 C6.32861328 14.21289062 6.34472656 15.05078125 6.36132812 15.9140625 C6.36536548 21.0495727 5.77080752 24.51114561 3 29 C1.68 28.67 0.36 28.34 -1 28 C-2.6951374 22.82679183 -3.33816501 18.30571515 -3.3125 12.875 C-3.32861328 12.18535156 -3.34472656 11.49570312 -3.36132812 10.78515625 C-3.36552657 6.39358385 -2.90662384 3.372471 0 0 Z " fill="#F0F2F4" transform="translate(166,337)"/>
<path d="M0 0 C0.99 0 1.98 0 3 0 C3.99 2.97 4.98 5.94 6 9 C7.32 9 8.64 9 10 9 C10 9.66 10 10.32 10 11 C9.01 11 8.02 11 7 11 C7 16.28 7 21.56 7 27 C6.34 26.67 5.68 26.34 5 26 C5 22.7 5 19.4 5 16 C3.68 16.33 2.36 16.66 1 17 C0.79859524 20.62528568 1.14223235 22.86501708 3 26 C0 25 0 25 -1.1875 23.3125 C-2.20201728 20.42502774 -2.20260309 18.03904628 -2 15 C-1 14 -1 14 2.0625 13.9375 C3.5165625 13.9684375 3.5165625 13.9684375 5 14 C5 13.01 5 12.02 5 11 C1.7 11 -1.6 11 -5 11 C-5 16.28 -5 21.56 -5 27 C-5.66 26.67 -6.32 26.34 -7 26 C-7 24.02 -7 22.04 -7 20 C-8.32 20 -9.64 20 -11 20 C-11.33 20.66 -11.66 21.32 -12 22 C-12.99 20.68 -13.98 19.36 -15 18 C-14.67 17.34 -14.34 16.68 -14 16 C-14.515625 15.5875 -15.03125 15.175 -15.5625 14.75 C-16.2740625 13.88375 -16.2740625 13.88375 -17 13 C-16.6875 10.8125 -16.6875 10.8125 -16 9 C-14.35 9.33 -12.7 9.66 -11 10 C-11 12.31 -11 14.62 -11 17 C-9.68 17 -8.36 17 -7 17 C-7 15.02 -7 13.04 -7 11 C-7.66 11 -8.32 11 -9 11 C-9 10.34 -9 9.68 -9 9 C-4.71 9 -0.42 9 4 9 C3.67 7.02 3.34 5.04 3 3 C2.01 2.67 1.02 2.34 0 2 C0 1.34 0 0.68 0 0 Z " fill="#151930" transform="translate(322,233)"/>
<path d="M0 0 C4.29 0 8.58 0 13 0 C13 2.31 13 4.62 13 7 C11.35 7 9.7 7 8 7 C8 18.88 8 30.76 8 43 C7.01 43 6.02 43 5 43 C5 31.12 5 19.24 5 7 C3.35 7 1.7 7 0 7 C0 4.69 0 2.38 0 0 Z " fill="#0E1122" transform="translate(543,330)"/>
<path d="M0 0 C4.29 0 8.58 0 13 0 C13 2.31 13 4.62 13 7 C11.35 7 9.7 7 8 7 C8 18.88 8 30.76 8 43 C7.01 43 6.02 43 5 43 C5 31.12 5 19.24 5 7 C3.35 7 1.7 7 0 7 C0 4.69 0 2.38 0 0 Z " fill="#121426" transform="translate(123,330)"/>
<path d="M0 0 C4.29 0 8.58 0 13 0 C13 2.31 13 4.62 13 7 C11.35 7 9.7 7 8 7 C8 18.88 8 30.76 8 43 C7.01 43 6.02 43 5 43 C5 31.12 5 19.24 5 7 C3.35 7 1.7 7 0 7 C0 4.69 0 2.38 0 0 Z " fill="#101223" transform="translate(72,330)"/>
<path d="M0 0 C9.9 0 19.8 0 30 0 C30 0.66 30 1.32 30 2 C29.34 2 28.68 2 28 2 C28 7.28 28 12.56 28 18 C27.34 17.67 26.68 17.34 26 17 C26 14.36 26 11.72 26 9 C24.68 9 23.36 9 22 9 C21.67 9.66 21.34 10.32 21 11 C20.34 10.34 19.68 9.68 19 9 C19 8.01 19 7.02 19 6 C21.31 6 23.62 6 26 6 C26 4.68 26 3.36 26 2 C22.7 2 19.4 2 16 2 C16 7.28 16 12.56 16 18 C15.34 17.67 14.68 17.34 14 17 C14 12.05 14 7.1 14 2 C12.68 2 11.36 2 10 2 C10 7.28 10 12.56 10 18 C9.34 17.67 8.68 17.34 8 17 C7.375 14.9375 7.375 14.9375 7 13 C5.35 13 3.7 13 2 13 C2.61875 12.67 3.2375 12.34 3.875 12 C7.01584125 9.04391412 7.17558202 6.19079141 8 2 C5.36 1.67 2.72 1.34 0 1 C0 0.67 0 0.34 0 0 Z " fill="#131526" transform="translate(241,242)"/>
<path d="M0 0 C1.65 0 3.3 0 5 0 C5 14.19 5 28.38 5 43 C4.01 43 3.02 43 2 43 C1.67 34.42 1.34 25.84 1 17 C0.34 18.32 -0.32 19.64 -1 21 C-1.02895976 17.87501937 -1.04678483 14.7500731 -1.0625 11.625 C-1.07087891 10.73554688 -1.07925781 9.84609375 -1.08789062 8.9296875 C-1.09111328 8.07890625 -1.09433594 7.228125 -1.09765625 6.3515625 C-1.10289307 5.56604004 -1.10812988 4.78051758 -1.11352539 3.97119141 C-1 2 -1 2 0 0 Z " fill="#16192A" transform="translate(401,330)"/>
<path d="M0 0 C1.32 0 2.64 0 4 0 C4 14.19 4 28.38 4 43 C2.68 43 1.36 43 0 43 C0 28.81 0 14.62 0 0 Z " fill="#313449" transform="translate(319,330)"/>
<path d="M0 0 C1.32 0 2.64 0 4 0 C4 14.19 4 28.38 4 43 C2.68 43 1.36 43 0 43 C0 28.81 0 14.62 0 0 Z " fill="#323547" transform="translate(34,330)"/>
<path d="M0 0 C2.375 1.875 2.375 1.875 4 4 C4 4.66 4 5.32 4 6 C3.443125 5.855625 2.88625 5.71125 2.3125 5.5625 C-0.11384195 4.97230872 -2.54906345 4.476571 -5 4 C-5.33 5.32 -5.66 6.64 -6 8 C-5.36191406 8.20496094 -4.72382813 8.40992188 -4.06640625 8.62109375 C-3.24011719 8.89050781 -2.41382813 9.15992188 -1.5625 9.4375 C-0.73878906 9.70433594 0.08492188 9.97117187 0.93359375 10.24609375 C3 11 3 11 4 12 C4.58309038 19.2303207 4.58309038 19.2303207 2.4375 22.0625 C-1.09106096 23.41963883 -3.38775116 22.98515877 -7 22 C-8.9375 20.125 -8.9375 20.125 -10 18 C-10 17.01 -10 16.02 -10 15 C-9.01 15 -8.02 15 -7 15 C-6.01 16.485 -6.01 16.485 -5 18 C-1.93443402 18.73343428 -1.93443402 18.73343428 1 19 C1 17.35 1 15.7 1 14 C0.36191406 13.79503906 -0.27617187 13.59007812 -0.93359375 13.37890625 C-1.75988281 13.10949219 -2.58617187 12.84007812 -3.4375 12.5625 C-4.26121094 12.29566406 -5.08492188 12.02882813 -5.93359375 11.75390625 C-8 11 -8 11 -9 10 C-9.45985401 3.7919708 -9.45985401 3.7919708 -7.875 1.0625 C-5.06487736 -0.52990283 -3.17235276 -0.45319325 0 0 Z " fill="#26283B" transform="translate(506,391)"/>
<path d="M0 0 C1.65 0 3.3 0 5 0 C6.20272819 2.40545638 6.10071472 3.94996953 6.0625 6.625 C6.05347656 7.44226563 6.04445313 8.25953125 6.03515625 9.1015625 C6.02355469 9.72804688 6.01195312 10.35453125 6 11 C5.34 11 4.68 11 4 11 C3.67 21.56 3.34 32.12 3 43 C2.01 43 1.02 43 0 43 C0 28.81 0 14.62 0 0 Z " fill="#15182D" transform="translate(390,330)"/>
<path d="M0 0 C1.32 0.33 2.64 0.66 4 1 C5.7634375 0.690625 5.7634375 0.690625 7.5625 0.375 C11 0 11 0 12.6965332 1.19848633 C14.33202918 3.45889554 14.34872491 4.6799959 14.29296875 7.44921875 C14.28330078 8.29677734 14.27363281 9.14433594 14.26367188 10.01757812 C14.23853516 10.89865234 14.21339844 11.77972656 14.1875 12.6875 C14.17396484 13.58017578 14.16042969 14.47285156 14.14648438 15.39257812 C14.11114079 17.59566166 14.06180493 19.79752582 14 22 C13.01 22 12.02 22 11 22 C10.67 16.39 10.34 10.78 10 5 C8.68 4.67 7.36 4.34 6 4 C3.06552643 6.93447357 3.53841577 10.18259456 3.375 14.125 C3.33632813 14.87910156 3.29765625 15.63320313 3.2578125 16.41015625 C3.16348969 18.27303184 3.08065338 20.13648255 3 22 C2.01 22 1.02 22 0 22 C0 14.74 0 7.48 0 0 Z " fill="#24273C" transform="translate(314,391)"/>
<path d="M0 0 C3.53557268 0.75224951 4.7975609 1.74431275 6.9375 4.625 C6.9375 5.615 6.9375 6.605 6.9375 7.625 C5.9475 7.625 4.9575 7.625 3.9375 7.625 C3.2775 6.635 2.6175 5.645 1.9375 4.625 C-0.53516765 4.96944881 -0.53516765 4.96944881 -3.0625 5.625 C-4.6260348 8.75206959 -4.46208487 12.20482443 -4.0625 15.625 C-2.39295181 18.84904978 -2.39295181 18.84904978 0.5625 19.3125 C1.34625 19.415625 2.13 19.51875 2.9375 19.625 C3.2675 17.975 3.5975 16.325 3.9375 14.625 C4.9275 14.625 5.9175 14.625 6.9375 14.625 C6.45720669 20.02829973 6.45720669 20.02829973 4.25 22.5625 C0.96530986 24.07168196 -0.66868216 23.82697715 -4.0625 22.625 C-7.39027678 19.20965014 -8.36557598 16.273598 -8.625 11.625 C-8.47264591 8.14712393 -8.00614987 5.82514643 -5.9375 3 C-3.0625 0.625 -3.0625 0.625 0 0 Z " fill="#303348" transform="translate(250.0625,390.375)"/>
<path d="M0 0 C2.875 0.25 2.875 0.25 6 1 C8.04109125 3.96287439 8.19630381 6.11329369 7.75 9.625 C7.61851562 10.78902344 7.61851562 10.78902344 7.484375 11.9765625 C7 14 7 14 5 16 C2.5625 16.4375 2.5625 16.4375 0 16 C-2.50553676 13.14887196 -2.97730838 11.21557035 -3.375 7.4375 C-2.9878044 3.88820703 -2.43037694 2.53164264 0 0 Z " fill="#EBECEF" transform="translate(300,394)"/>
<path d="M0 0 C2.4375 0.875 2.4375 0.875 4.4375 3.875 C4.703125 6.03125 4.703125 6.03125 4.6875 8.375 C4.69265625 9.1484375 4.6978125 9.921875 4.703125 10.71875 C4.4375 12.875 4.4375 12.875 2.4375 15.875 C-0.5625 16.25 -0.5625 16.25 -3.5625 15.875 C-5.70803377 12.65669935 -5.85833868 11.60713493 -5.875 7.875 C-5.89175781 7.00875 -5.90851563 6.1425 -5.92578125 5.25 C-5.5625 2.875 -5.5625 2.875 -4.203125 1.0546875 C-2.5625 -0.125 -2.5625 -0.125 0 0 Z " fill="#F1F2F5" transform="translate(125.5625,394.125)"/>
<path d="M0 0 C2.4375 0.875 2.4375 0.875 4.4375 3.875 C4.95923913 12.0923913 4.95923913 12.0923913 2.4375 15.875 C-0.4375 16.0625 -0.4375 16.0625 -3.5625 15.875 C-5.70803377 12.65669935 -5.85833868 11.60713493 -5.875 7.875 C-5.89175781 7.00875 -5.90851563 6.1425 -5.92578125 5.25 C-5.5625 2.875 -5.5625 2.875 -4.203125 1.0546875 C-2.5625 -0.125 -2.5625 -0.125 0 0 Z " fill="#F1F2F5" transform="translate(467.5625,394.125)"/>
<path d="M0 0 C2.4375 0.875 2.4375 0.875 4.4375 3.875 C4.73828125 6.03125 4.73828125 6.03125 4.75 8.375 C4.76675781 9.1484375 4.78351563 9.921875 4.80078125 10.71875 C4.35083527 13.38939709 3.57720559 14.26003173 1.4375 15.875 C-1.125 16.1875 -1.125 16.1875 -3.5625 15.875 C-6.16436108 13.27313892 -5.86060177 12.05145645 -5.875 8.4375 C-5.89175781 7.46941406 -5.90851563 6.50132812 -5.92578125 5.50390625 C-5.5625 2.875 -5.5625 2.875 -4.203125 1.01953125 C-2.5625 -0.125 -2.5625 -0.125 0 0 Z " fill="#EFF0F3" transform="translate(385.5625,394.125)"/>
<path d="M0 0 C2.4375 0.875 2.4375 0.875 4.4375 3.875 C4.98152291 10.72968862 4.98152291 10.72968862 3.25 14.375 C1.4375 15.875 1.4375 15.875 -1.125 16.25 C-3.5625 15.875 -3.5625 15.875 -5.5625 13.875 C-5.86328125 11.37890625 -5.86328125 11.37890625 -5.875 8.4375 C-5.89175781 7.46941406 -5.90851563 6.50132812 -5.92578125 5.50390625 C-5.5625 2.875 -5.5625 2.875 -4.203125 1.01953125 C-2.5625 -0.125 -2.5625 -0.125 0 0 Z " fill="#EFF0F4" transform="translate(144.5625,394.125)"/>
<path d="M0 0 C4.75 0.75 4.75 0.75 7 3 C7.265625 5.53125 7.265625 5.53125 7.25 8.5 C7.25515625 9.4796875 7.2603125 10.459375 7.265625 11.46875 C7 14 7 14 5 16 C2.5625 16.375 2.5625 16.375 0 16 C-2.1446305 14.22513338 -2.87365521 12.84460623 -3.28515625 10.09375 C-3.43556802 6.58850171 -3.33400756 4.55667927 -1.5 1.5 C-1.005 1.005 -0.51 0.51 0 0 Z " fill="#F8F9FA" transform="translate(401,394)"/>
<path d="M0 0 C0.99 0 1.98 0 3 0 C3.33 5.61 3.66 11.22 4 17 C5.65 17.33 7.3 17.66 9 18 C11.84614024 15.15385976 11.45579076 12.19630858 11.625 8.375 C11.68300781 7.31539063 11.68300781 7.31539063 11.7421875 6.234375 C11.83647724 4.49001476 11.91932891 2.74504309 12 1 C12.66 1 13.32 1 14 1 C14 7.93 14 14.86 14 22 C12.68 22 11.36 22 10 22 C8.824375 22.0825 7.64875 22.165 6.4375 22.25 C3 22 3 22 1.296875 20.5625 C-0.66680873 16.68245022 -0.31788466 13.02929143 -0.1875 8.75 C-0.17396484 7.90953125 -0.16042969 7.0690625 -0.14648438 6.203125 C-0.11123464 4.13514062 -0.0574302 2.06748729 0 0 Z " fill="#272A3E" transform="translate(224,391)"/>
<path d="M0 0 C0.99 0 1.98 0 3 0 C3.14541967 4.22880411 3.23411527 8.45696413 3.3125 12.6875 C3.3753418 14.48477539 3.3753418 14.48477539 3.43945312 16.31835938 C3.57761603 26.23845626 3.57761603 26.23845626 0.64453125 29.328125 C-2 31 -2 31 -4.625 31.0625 C-7.50243722 29.77522545 -8.53078826 28.78376961 -10 26 C-10.1875 23.25 -10.1875 23.25 -10 21 C-9.01 21 -8.02 21 -7 21 C-6.67 22.65 -6.34 24.3 -6 26 C-4.35 25.67 -2.7 25.34 -1 25 C-0.67 16.75 -0.34 8.5 0 0 Z " fill="#181A2B" transform="translate(452,383)"/>
<path d="M0 0 C0.99 0 1.98 0 3 0 C3 14.19 3 28.38 3 43 C2.01 43 1.02 43 0 43 C0 28.81 0 14.62 0 0 Z " fill="#0D0E1E" transform="translate(249,330)"/>
<path d="M0 0 C0.99 0 1.98 0 3 0 C3 14.19 3 28.38 3 43 C2.01 43 1.02 43 0 43 C0 28.81 0 14.62 0 0 Z " fill="#121424" transform="translate(87,330)"/>
<path d="M0 0 C4.875 0.875 4.875 0.875 6 2 C6.12514928 3.97619447 6.1757276 5.95738173 6.1875 7.9375 C6.20167969 9.01902344 6.21585937 10.10054688 6.23046875 11.21484375 C6 14 6 14 4 16 C1.375 16.125 1.375 16.125 -1 16 C-3.49615286 12.25577071 -3.61489576 8.34882801 -3 4 C-1.5 1.5 -1.5 1.5 0 0 Z " fill="#EDEFF2" transform="translate(484,394)"/>
<path d="M0 0 C4.75 0.75 4.75 0.75 7 3 C7.265625 5.27734375 7.265625 5.27734375 7.25 7.9375 C7.25515625 8.81277344 7.2603125 9.68804687 7.265625 10.58984375 C7 13 7 13 5 16 C2.5 16.375 2.5 16.375 0 16 C-2.15942819 12.76085771 -2.27232978 11.75140267 -2.25 8 C-2.25515625 7.13375 -2.2603125 6.2675 -2.265625 5.375 C-2 3 -2 3 0 0 Z " fill="#F0F1F4" transform="translate(210,394)"/>
<path d="M0 0 C4.875 0.875 4.875 0.875 6 2 C6.12514928 3.97619447 6.1757276 5.95738173 6.1875 7.9375 C6.20167969 9.01902344 6.21585938 10.10054688 6.23046875 11.21484375 C6 14 6 14 4 16 C1.375 16.125 1.375 16.125 -1 16 C-3.49615286 12.25577071 -3.61489576 8.34882801 -3 4 C-1.5 1.5 -1.5 1.5 0 0 Z " fill="#F7F8F8" transform="translate(160,394)"/>
<path d="M0 0 C1.9375 0.8125 1.9375 0.8125 3.9375 2.8125 C4.203125 5.34375 4.203125 5.34375 4.1875 8.3125 C4.19265625 9.2921875 4.1978125 10.271875 4.203125 11.28125 C3.9375 13.8125 3.9375 13.8125 1.9375 15.8125 C-0.6875 15.9375 -0.6875 15.9375 -3.0625 15.8125 C-4.75463943 12.85294139 -5.35771319 10.65550083 -5.375 7.25 C-5.39175781 6.48558594 -5.40851563 5.72117187 -5.42578125 4.93359375 C-4.86984613 1.68764998 -3.42320806 -0.31120073 0 0 Z " fill="#F2F4F6" transform="translate(422.0625,394.1875)"/>
<path d="M0 0 C1.65 0 3.3 0 5 0 C5 5.28 5 10.56 5 16 C4.34 14.68 3.68 13.36 3 12 C2.67 21.9 2.34 31.8 2 42 C1.34 42 0.68 42 0 42 C0 28.14 0 14.28 0 0 Z " fill="#0C0E1E" transform="translate(493,330)"/>
<path d="M0 0 C5.94 0 11.88 0 18 0 C18 0.66 18 1.32 18 2 C17.34 2 16.68 2 16 2 C16 7.28 16 12.56 16 18 C15.34 17.67 14.68 17.34 14 17 C14 13.7 14 10.4 14 7 C12.35 8.32 10.7 9.64 9 11 C8.67 9.68 8.34 8.36 8 7 C7.01 7 6.02 7 5 7 C6.07710178 11.30840713 7.03947516 14.63576723 10 18 C8.25 17.875 8.25 17.875 6 17 C3.6875 14.25 3.6875 14.25 2 11 C2.25 8.125 2.25 8.125 3 6 C6.42296964 5.25989846 9.50130105 5 13 5 C13.33 4.01 13.66 3.02 14 2 C9.38 2 4.76 2 0 2 C0 1.34 0 0.68 0 0 Z " fill="#13162C" transform="translate(286,242)"/>
<path d="M0 0 C3.96 0 7.92 0 12 0 C11.74064404 5.27357122 11.74064404 5.27357122 11 8 C8.6875 10.0625 8.6875 10.0625 6 11 C3.6875 10.6875 3.6875 10.6875 2 10 C1.67 11.98 1.34 13.96 1 16 C0.67 16 0.34 16 0 16 C0 10.72 0 5.44 0 0 Z " fill="#DEE3EE" transform="translate(237,244)"/>
<path d="M0 0 C5.61 0 11.22 0 17 0 C17 0.66 17 1.32 17 2 C16.01 2 15.02 2 14 2 C14 7.28 14 12.56 14 18 C13.34 18 12.68 18 12 18 C12 14.7 12 11.4 12 8 C10.35 8 8.7 8 7 8 C7.99 9.485 7.99 9.485 9 11 C8.66666667 13 8.33333333 15 8 17 C8.66 17.99 9.32 18.98 10 20 C7.04590299 18.62845496 4.55991624 17.01136276 2 15 C2.33 14.01 2.66 13.02 3 12 C4.32 12.66 5.64 13.32 7 14 C6.525625 13.21625 6.05125 12.4325 5.5625 11.625 C4.66101977 10.11051322 3.78820515 8.5764103 3 7 C5.97 7 8.94 7 12 7 C12 5.35 12 3.7 12 2 C8.04 2 4.08 2 0 2 C0 1.34 0 0.68 0 0 Z " fill="#1D1F32" transform="translate(347,242)"/>
<path d="M0 0 C0.66 0.33 1.32 0.66 2 1 C0.515 2.485 0.515 2.485 -1 4 C0.32 4.33 1.64 4.66 3 5 C2.40998644 8.9825915 1.06003974 11.37710879 -2 14 C-5.70169817 14.43204258 -9.29040377 14.2878135 -13 14 C-11.43416404 9.96278439 -8.55826135 7.52929418 -5.375 4.75 C-4.859375 4.29109375 -4.34375 3.8321875 -3.8125 3.359375 C-2.5465398 2.23407704 -1.27392058 1.11627823 0 0 Z " fill="#F2171B" transform="translate(260,301)"/>
<path d="M0 0 C6.27 0 12.54 0 19 0 C19 0.33 19 0.66 19 1 C14.71 1 10.42 1 6 1 C6 3.31 6 5.62 6 8 C5.34 8 4.68 8 4 8 C4 19.88 4 31.76 4 44 C2.68 43.67 1.36 43.34 0 43 C0.99 43 1.98 43 3 43 C3 29.14 3 15.28 3 1 C2.34 1 1.68 1 1 1 C1 9.91 1 18.82 1 28 C-1.03068992 23.93862016 -1.20692817 22.69024964 -0.9765625 18.359375 C-0.925 17.28945313 -0.8734375 16.21953125 -0.8203125 15.1171875 C-0.72363281 13.45042969 -0.72363281 13.45042969 -0.625 11.75 C-0.56828125 10.62335938 -0.5115625 9.49671875 -0.453125 8.3359375 C-0.3118119 5.55677992 -0.15718241 2.77830523 0 0 Z " fill="#898FA6" transform="translate(537,329)"/>
<path d="M0 0 C0.99 0 1.98 0 3 0 C3.66 2.31 4.32 4.62 5 7 C5.99 7 6.98 7 8 7 C10.20142332 4.5609294 10.20142332 4.5609294 12 2 C12.08121924 3.60332791 12.13929134 5.20784026 12.1875 6.8125 C12.22230469 7.70582031 12.25710937 8.59914063 12.29296875 9.51953125 C12 12 12 12 10.64453125 13.796875 C9 15 9 15 6.5 15.4375 C4 15 4 15 2.25 13.25 C-0.20842868 8.82482837 -0.09687984 5.03775159 0 0 Z " fill="#141627" transform="translate(57,358)"/>
<path d="M0 0 C0.66 0 1.32 0 2 0 C2 2.31 2 4.62 2 7 C2.99 7 3.98 7 5 7 C5 7.66 5 8.32 5 9 C4.01 9 3.02 9 2 9 C2.11341491 11.48020497 2.24014686 13.95844969 2.375 16.4375 C2.4059375 17.14455078 2.436875 17.85160156 2.46875 18.58007812 C2.57280629 20.39239188 2.77919892 22.19817988 3 24 C3.66 24.33 4.32 24.66 5 25 C5 25.99 5 26.98 5 28 C0.125 27.125 0.125 27.125 -1 26 C-1.07325168 23.13732433 -1.09238205 20.299281 -1.0625 17.4375 C-1.05798828 16.63119141 -1.05347656 15.82488281 -1.04882812 14.99414062 C-1.03700518 12.99606244 -1.01906914 10.99802217 -1 9 C-1.66 9 -2.32 9 -3 9 C-3 8.01 -3 7.02 -3 6 C-2.34 6 -1.68 6 -1 6 C-1.0309375 4.7934375 -1.0309375 4.7934375 -1.0625 3.5625 C-1 1 -1 1 0 0 Z " fill="#1C1E30" transform="translate(280,385)"/>
<path d="M0 0 C1.32 1.32 2.64 2.64 4 4 C4 3.34 4 2.68 4 2 C5.32 2 6.64 2 8 2 C8.33 4.97 8.66 7.94 9 11 C8.67 10.34 8.34 9.68 8 9 C7.443125 9.515625 6.88625 10.03125 6.3125 10.5625 C4 12 4 12 1.25 11.6875 C0.5075 11.460625 -0.235 11.23375 -1 11 C-1 10.01 -1 9.02 -1 8 C-2.65 7.67 -4.3 7.34 -6 7 C-5.67 5.35 -5.34 3.7 -5 2 C-3.02 2.495 -3.02 2.495 -1 3 C-1 3.99 -1 4.98 -1 6 C-0.34 5.67 0.32 5.34 1 5 C0.34 3.68 -0.32 2.36 -1 1 C-0.67 0.67 -0.34 0.34 0 0 Z " fill="#373C53" transform="translate(224,250)"/>
<path d="M0 0 C21.78 0 43.56 0 66 0 C66 0.33 66 0.66 66 1 C46.2 1 26.4 1 6 1 C6 1.66 6 2.32 6 3 C6.66 3 7.32 3 8 3 C8 4.98 8 6.96 8 9 C7.01 8.67 6.02 8.34 5 8 C4.67 7.34 4.34 6.68 4 6 C3.01 6 2.02 6 1 6 C0.67 4.02 0.34 2.04 0 0 Z " fill="#B0B4BE" transform="translate(205,241)"/>
<path d="M0 0 C4.62 0 9.24 0 14 0 C11 2 11 2 9 3 C9.48484276 7.64586892 9.48484276 7.64586892 11 12 C10.01 12 9.02 12 8 12 C7.67 11.01 7.34 10.02 7 9 C6.01 9 5.02 9 4 9 C3.01 11.31 2.02 13.62 1 16 C0.34 15.67 -0.32 15.34 -1 15 C-0.67 10.05 -0.34 5.1 0 0 Z " fill="#DEE1E7" transform="translate(215,244)"/>
<path d="M0 0 C1.32 0 2.64 0 4 0 C4.05383848 2.45862401 4.09359038 4.9160755 4.125 7.375 C4.14175781 8.07367188 4.15851563 8.77234375 4.17578125 9.4921875 C4.19344267 11.32897486 4.10303261 13.16601963 4 15 C3.34 15.66 2.68 16.32 2 17 C1.67 14.03 1.34 11.06 1 8 C-0.32 8 -1.64 8 -3 8 C-3 8.66 -3 9.32 -3 10 C-3.99 9.67 -4.98 9.34 -6 9 C-6 7.35 -6 5.7 -6 4 C-4.02 4 -2.04 4 0 4 C0 2.68 0 1.36 0 0 Z " fill="#F0F2F4" transform="translate(231,244)"/>
<path d="M0 0 C0.99 0.33 1.98 0.66 3 1 C3.13277344 1.71027344 3.26554687 2.42054688 3.40234375 3.15234375 C3.57894531 4.07144531 3.75554687 4.99054688 3.9375 5.9375 C4.19853516 7.31228516 4.19853516 7.31228516 4.46484375 8.71484375 C4.77714988 10.95289844 4.77714988 10.95289844 6 12 C9.62059232 12.29356154 11.87703962 11.85064319 15 10 C14.63680051 12.6331963 14.14494976 13.84431322 12.3125 15.8125 C10 17 10 17 7 17.0625 C4 16 4 16 1.625 13.5625 C-0.49919538 8.90561013 -0.35808212 5.03304314 0 0 Z " fill="#282A3E" transform="translate(395,397)"/>
<path d="M0 0 C0.99 0.33 1.98 0.66 3 1 C2.34 1 1.68 1 1 1 C1.66 2.32 2.32 3.64 3 5 C3.66 4.01 4.32 3.02 5 2 C5.12375 2.804375 5.2475 3.60875 5.375 4.4375 C5.684375 5.7059375 5.684375 5.7059375 6 7 C6.66 7.33 7.32 7.66 8 8 C8 6.02 8 4.04 8 2 C8.33 2 8.66 2 9 2 C9 6.95 9 11.9 9 17 C8.67 17 8.34 17 8 17 C7.67 15.35 7.34 13.7 7 12 C5.824375 13.2375 5.824375 13.2375 4.625 14.5 C2 17 2 17 0 17 C1.29299694 14.11562221 2.65941363 12.12780579 5 10 C1.10540926 9.78918149 1.10540926 9.78918149 -2 11 C-1.835 10.0925 -1.67 9.185 -1.5 8.25 C-0.89862854 4.88912497 -0.89862854 4.88912497 -1 1 C-0.67 0.67 -0.34 0.34 0 0 Z " fill="#333852" transform="translate(205,242)"/>
<path d="M0 0 C-0.61875 0.433125 -1.2375 0.86625 -1.875 1.3125 C-4.2197245 2.99740483 -4.2197245 2.99740483 -6 6 C-6.27908997 8.44679185 -6.27908997 8.44679185 -6.1875 11.0625 C-6.18105469 11.94035156 -6.17460937 12.81820313 -6.16796875 13.72265625 C-6.14279132 16.03125991 -6.14279132 16.03125991 -5 18 C-2.47266765 18.65555119 -2.47266765 18.65555119 0 19 C-2.64738916 20.4606285 -3.89448334 21 -7 21 C-10.62175247 17.10996957 -10.5612223 12.66027248 -10.41796875 7.60546875 C-10 5 -10 5 -7.8125 1.8125 C-4.82363158 -0.11365965 -3.47219276 -0.49602754 0 0 Z " fill="#26293C" transform="translate(469,391)"/>
<path d="M0 0 C0.721875 0.12375 1.44375 0.2475 2.1875 0.375 C1.259375 0.99375 1.259375 0.99375 0.3125 1.625 C-2.0349677 3.55820869 -2.87878767 4.49605366 -3.8125 7.375 C-4.14135426 11.46459782 -4.12129636 15.44861093 -2.8125 19.375 C-1.4925 19.705 -0.1725 20.035 1.1875 20.375 C0.1975 20.375 -0.7925 20.375 -1.8125 20.375 C-1.8125 21.035 -1.8125 21.695 -1.8125 22.375 C-4.42375422 21.41754012 -5.60414659 20.71878312 -7.0625 18.3125 C-8.25025937 13.66044245 -9.06665648 8.91440775 -6.8671875 4.4609375 C-4.8076025 1.72777753 -3.42269976 0.45635997 0 0 Z " fill="#25273A" transform="translate(161.8125,390.625)"/>
<path d="M0 0 C1.98 0 3.96 0 6 0 C7.49297212 2.98594424 7.11755228 5.70853624 7 9 C6.67 9.66 6.34 10.32 6 11 C4.02 11 2.04 11 0 11 C0 7.37 0 3.74 0 0 Z " fill="#E7EAF0" transform="translate(306,337)"/>
<path d="M0 0 C0.33 0 0.66 0 1 0 C1.33 5.28 1.66 10.56 2 16 C1.34 16 0.68 16 0 16 C0 17.65 0 19.3 0 21 C-0.33 21 -0.66 21 -1 21 C-1.33 26.61 -1.66 32.22 -2 38 C-2.99 37.67 -3.98 37.34 -5 37 C-4.34 37 -3.68 37 -3 37 C-3 26.77 -3 16.54 -3 6 C-2.34 6.33 -1.68 6.66 -1 7 C-0.67 4.69 -0.34 2.38 0 0 Z " fill="#3D425C" transform="translate(498,335)"/>
<path d="M0 0 C3.38186376 1.9427728 4.70264591 2.99357079 5.8125 6.75 C5.874375 7.4925 5.93625 8.235 6 9 C5.01 9 4.02 9 3 9 C2.401875 8.175 1.80375 7.35 1.1875 6.5 C-0.77181373 3.71853166 -0.77181373 3.71853166 -3.875 3.5625 C-7.11684022 4.01635763 -9.9450972 4.8362275 -13 6 C-10.39405551 -0.01371806 -6.22175934 -0.98238305 0 0 Z " fill="#1E2033" transform="translate(367,383)"/>
<path d="M0 0 C0.99 0 1.98 0 3 0 C3 7.26 3 14.52 3 22 C2.01 22 1.02 22 0 22 C0 14.74 0 7.48 0 0 Z " fill="#1F2232" transform="translate(288,391)"/>
<path d="M0 0 C0.33 0 0.66 0 1 0 C1 10.23 1 20.46 1 31 C0.01 31 -0.98 31 -2 31 C-2.37534623 20.55286325 -1.21312497 10.35488814 0 0 Z " fill="#C9CFDF" transform="translate(402,342)"/>
<path d="M0 0 C0.66 0 1.32 0 2 0 C2 0.99 2 1.98 2 3 C2.66 3 3.32 3 4 3 C3.67 8.94 3.34 14.88 3 21 C2.01 21 1.02 21 0 21 C0 14.07 0 7.14 0 0 Z " fill="#11142A" transform="translate(314,392)"/>
<path d="M0 0 C6.27 0 12.54 0 19 0 C18.01 0.33 17.02 0.66 16 1 C16 10.9 16 20.8 16 31 C15.67 31 15.34 31 15 31 C14.67 23.41 14.34 15.82 14 8 C13.67 8 13.34 8 13 8 C13 5.69 13 3.38 13 1 C8.71 1 4.42 1 0 1 C0 0.67 0 0.34 0 0 Z " fill="#A9AFC2" transform="translate(92,329)"/>
<path d="M0 0 C3.20878901 3.90329402 3.94276458 7.12045189 5 12 C7.64 12.33 10.28 12.66 13 13 C12.67 13.99 12.34 14.98 12 16 C9.3125 16.75 9.3125 16.75 6 17 C2.62454766 14.89971854 1.26599039 13.79797116 0 10 C-0.06802967 8.27204648 -0.08495645 6.54164635 -0.0625 4.8125 C-0.05347656 3.91144531 -0.04445313 3.01039063 -0.03515625 2.08203125 C-0.02355469 1.39496094 -0.01195312 0.70789063 0 0 Z " fill="#292C42" transform="translate(414,397)"/>
<path d="M0 0 C2.375 1.8125 2.375 1.8125 4 4 C4 4.99 4 5.98 4 7 C3.01 7 2.02 7 1 7 C0.34 6.01 -0.32 5.02 -1 4 C-3.42919865 3.86559222 -3.42919865 3.86559222 -6 5 C-7.38293093 7.55518097 -8.21791649 10.20866129 -9 13 C-9.33 13 -9.66 13 -10 13 C-10.61741425 4.97361478 -10.61741425 4.97361478 -8.375 1.4375 C-5.27451464 -0.43910956 -3.56716403 -0.59452734 0 0 Z " fill="#1D2032" transform="translate(253,391)"/>
<path d="M0 0 C0.33 0.66 0.66 1.32 1 2 C1.99 1.67 2.98 1.34 4 1 C4 5.95 4 10.9 4 16 C2.68 16 1.36 16 0 16 C0 10.72 0 5.44 0 0 Z " fill="#161829" transform="translate(396,357)"/>
<path d="M0 0 C2.31 0 4.62 0 7 0 C7 2.97 7 5.94 7 9 C5.35 9 3.7 9 2 9 C1.67 9.66 1.34 10.32 1 11 C0.34 10.34 -0.32 9.68 -1 9 C-0.9765625 6.8359375 -0.9765625 6.8359375 -0.625 4.375 C-0.51414062 3.55773437 -0.40328125 2.74046875 -0.2890625 1.8984375 C-0.19367188 1.27195313 -0.09828125 0.64546875 0 0 Z " fill="#4C5064" transform="translate(383,244)"/>
<path d="M0 0 C3.3 0 6.6 0 10 0 C10 1.32 10 2.64 10 4 C9.030625 4.12375 8.06125 4.2475 7.0625 4.375 C5.5465625 4.684375 5.5465625 4.684375 4 5 C3.67 5.66 3.34 6.32 3 7 C2.34 7 1.68 7 1 7 C1 9.97 1 12.94 1 16 C0.67 16 0.34 16 0 16 C0 10.72 0 5.44 0 0 Z " fill="#EEF1F5" transform="translate(367,244)"/>
<path d="M0 0 C0.33 0 0.66 0 1 0 C1 2.31 1 4.62 1 7 C2.65 7 4.3 7 6 7 C6 18.88 6 30.76 6 43 C5.67 43 5.34 43 5 43 C5 31.45 5 19.9 5 8 C3.02 8 1.04 8 -1 8 C-1.33 9.32 -1.66 10.64 -2 12 C-2 9.69 -2 7.38 -2 5 C-1.34 5 -0.68 5 0 5 C0 3.35 0 1.7 0 0 Z " fill="#B1B4BC" transform="translate(71,330)"/>
<path d="M0 0 C-0.75 5.75 -0.75 5.75 -3 8 C-5.625 7.625 -5.625 7.625 -8 7 C-8.33 5.35 -8.66 3.7 -9 2 C-5.86501708 0.14223235 -3.62528568 -0.20140476 0 0 Z " fill="#E2E4E9" transform="translate(271,403)"/>
<path d="M0 0 C1.29608947 0.93137592 2.58671632 1.8703566 3.875 2.8125 C4.59429687 3.33457031 5.31359375 3.85664062 6.0546875 4.39453125 C8 6 8 6 10 9 C9.01 10.32 8.02 11.64 7 13 C4.10440971 10.85840368 1.3785683 8.71449367 -1 6 C-1 2.5625 -1 2.5625 0 0 Z " fill="#FAEAE8" transform="translate(493,118)"/>
<path d="M0 0 C1.2065625 0.0309375 1.2065625 0.0309375 2.4375 0.0625 C2.4375 0.7225 2.4375 1.3825 2.4375 2.0625 C3.0975 2.3925 3.7575 2.7225 4.4375 3.0625 C1.97596154 7.8625 1.97596154 7.8625 -0.75 8.875 C-1.348125 8.936875 -1.94625 8.99875 -2.5625 9.0625 C-4.5625 6.0625 -4.5625 6.0625 -4.25 3.4375 C-3.27807854 0.07995314 -3.27807854 0.07995314 0 0 Z " fill="#393D56" transform="translate(244.5625,245.9375)"/>
<path d="M0 0 C0.33 0 0.66 0 1 0 C1.07347656 1.13888672 1.07347656 1.13888672 1.1484375 2.30078125 C1.22320312 3.29464844 1.29796875 4.28851563 1.375 5.3125 C1.44460937 6.29863281 1.51421875 7.28476562 1.5859375 8.30078125 C1.83865472 11.21528433 1.83865472 11.21528433 4 14 C6.05925139 14.72382467 6.05925139 14.72382467 8 15 C8 15.66 8 16.32 8 17 C2.50581395 17.36627907 2.50581395 17.36627907 0.1875 15.6875 C-2.42341557 11.97725156 -2.23066948 8.38272015 -2 4 C-1 1.5625 -1 1.5625 0 0 Z " fill="#171A2D" transform="translate(119,396)"/>
<path d="M0 0 C0.33 0 0.66 0 1 0 C1.33921452 3.18690233 1.67029417 6.37460104 2 9.5625 C2.14308594 10.90538086 2.14308594 10.90538086 2.2890625 12.27539062 C2.79567965 17.21490788 3.10897382 22.03488014 3 27 C2.34 27 1.68 27 1 27 C0.67 27.66 0.34 28.32 0 29 C0 19.43 0 9.86 0 0 Z " fill="#D1D5E3" transform="translate(393,344)"/>
<path d="M0 0 C2.00349261 0.31165441 4.00326516 0.64763503 6 1 C7.32 1 8.64 1 10 1 C8.35 2.65 6.7 4.3 5 6 C4.67 4.68 4.34 3.36 4 2 C3.01 2 2.02 2 1 2 C2.07710178 6.30840713 3.03947516 9.63576723 6 13 C4.25 12.875 4.25 12.875 2 12 C-2.07679466 7.15191987 -2.07679466 7.15191987 -1.8125 3.1875 C-1 1 -1 1 0 0 Z " fill="#282B42" transform="translate(290,247)"/>
<path d="M0 0 C0.33 0 0.66 0 1 0 C1 2.64 1 5.28 1 8 C1.66 8 2.32 8 3 8 C3 5.36 3 2.72 3 0 C3.33 0 3.66 0 4 0 C4.46786478 4.67864777 4.80571716 8.65799822 1.875 12.5625 C-1 15 -1 15 -4.3125 15.375 C-5.199375 15.25125 -6.08625 15.1275 -7 15 C-7 14.01 -7 13.02 -7 12 C-5.02 11.34 -3.04 10.68 -1 10 C-0.67 6.7 -0.34 3.4 0 0 Z " fill="#3C3F54" transform="translate(490,398)"/>
<path d="M0 0 C0.33 0 0.66 0 1 0 C1 9.24 1 18.48 1 28 C1.66 28 2.32 28 3 28 C3 29.65 3 31.3 3 33 C2.34 33 1.68 33 1 33 C1 36.3 1 39.6 1 43 C0.67 43 0.34 43 0 43 C0 28.81 0 14.62 0 0 Z " fill="#DCE0F1" transform="translate(54,330)"/>
<path d="M0 0 C2.14336161 3.4766338 2.21277626 6.21229195 2.125 10.25 C2.10695313 11.32765625 2.08890625 12.4053125 2.0703125 13.515625 C2.04710937 14.33546875 2.02390625 15.1553125 2 16 C1.34 15.67 0.68 15.34 0 15 C0 12.36 0 9.72 0 7 C-1.32 7 -2.64 7 -4 7 C-4.33 7.66 -4.66 8.32 -5 9 C-5.66 8.34 -6.32 7.68 -7 7 C-7 6.01 -7 5.02 -7 4 C-4.69 4 -2.38 4 0 4 C0 2.68 0 1.36 0 0 Z " fill="#2E3148" transform="translate(267,244)"/>
<path d="M0 0 C-0.99 0.33 -1.98 0.66 -3 1 C-4.10836423 2.88316159 -4.10836423 2.88316159 -5 5 C-5.99 6.485 -5.99 6.485 -7 8 C-7.37847045 10.0179789 -7.37847045 10.0179789 -7.5 12.125 C-7.665 13.40375 -7.83 14.6825 -8 16 C-8.66 16.33 -9.32 16.66 -10 17 C-10.77825818 6.1562693 -10.77825818 6.1562693 -7.8125 1.75 C-4.8309346 -0.10519625 -3.43360355 -0.49051479 0 0 Z " fill="#282B3F" transform="translate(387,391)"/>
<path d="M0 0 C0.33 0 0.66 0 1 0 C1.06058594 0.63808594 1.12117188 1.27617187 1.18359375 1.93359375 C1.26738281 2.75988281 1.35117187 3.58617187 1.4375 4.4375 C1.55931641 5.67306641 1.55931641 5.67306641 1.68359375 6.93359375 C1.78930815 8.98662025 1.78930815 8.98662025 3 10 C6.62059232 10.29356154 8.87703962 9.85064319 12 8 C10.68 10.31 9.36 12.62 8 15 C2.57491289 14.39721254 2.57491289 14.39721254 0.28125 12.8125 C-1.57034796 10.1931663 -1.09233845 8.44079713 -0.6875 5.3125 C-0.56761719 4.31863281 -0.44773437 3.32476562 -0.32421875 2.30078125 C-0.21722656 1.54152344 -0.11023438 0.78226562 0 0 Z " fill="#2F3245" transform="translate(379,399)"/>
<path d="M0 0 C2.02558881 3.34939881 2.21738987 5.86962551 2.125 9.75 C2.10695313 10.73484375 2.08890625 11.7196875 2.0703125 12.734375 C2.03550781 13.85585938 2.03550781 13.85585938 2 15 C1.34 15 0.68 15 0 15 C0 12.36 0 9.72 0 7 C-1.32 7 -2.64 7 -4 7 C-4.33 7.66 -4.66 8.32 -5 9 C-5.66 7.68 -6.32 6.36 -7 5 C-6 4 -6 4 -2.9375 3.9375 C-1.4834375 3.9684375 -1.4834375 3.9684375 0 4 C0 2.68 0 1.36 0 0 Z " fill="#2E334B" transform="translate(377,244)"/>
<path d="M0 0 C2.64 0.99 5.28 1.98 8 3 C8 4.65 8 6.3 8 8 C5.1875 8.3125 5.1875 8.3125 2 8 C0.0625 5.6875 0.0625 5.6875 -1 3 C-0.67 2.01 -0.34 1.02 0 0 Z " fill="#EEF1F3" transform="translate(499,402)"/>
<path d="M0 0 C-0.33 0.99 -0.66 1.98 -1 3 C-2.65 3.33 -4.3 3.66 -6 4 C-6.33 7.3 -6.66 10.6 -7 14 C-7.33 14 -7.66 14 -8 14 C-8.33 12.02 -8.66 10.04 -9 8 C-9.33 9.98 -9.66 11.96 -10 14 C-10.33 14 -10.66 14 -11 14 C-11.4560284 8.29964499 -10.60412752 5.45215753 -7 1 C-4.53721199 -0.231394 -2.7204945 -0.07159196 0 0 Z " fill="#373A4E" transform="translate(146,391)"/>
<path d="M0 0 C6.04801071 0.54981916 11.30601106 1.90429574 17 4 C16.01 4.495 16.01 4.495 15 5 C14.67 5.99 14.34 6.98 14 8 C9.38 5.69 4.76 3.38 0 1 C0 0.67 0 0.34 0 0 Z " fill="#FAE2E2" transform="translate(313,285)"/>
<path d="M0 0 C3.96 0 7.92 0 12 0 C12 0.33 12 0.66 12 1 C10.02 1 8.04 1 6 1 C6 1.66 6 2.32 6 3 C6.66 3 7.32 3 8 3 C8 4.98 8 6.96 8 9 C7.01 8.67 6.02 8.34 5 8 C4.67 7.34 4.34 6.68 4 6 C3.01 6 2.02 6 1 6 C0.67 4.02 0.34 2.04 0 0 Z " fill="#C4C9D5" transform="translate(205,241)"/>
<path d="M0 0 C0.33 0 0.66 0 1 0 C1.66 3.3 2.32 6.6 3 10 C4.423125 9.9690625 4.423125 9.9690625 5.875 9.9375 C9 10 9 10 11 11 C10.67 11.99 10.34 12.98 10 14 C9.34 14 8.68 14 8 14 C7.030625 14.061875 6.06125 14.12375 5.0625 14.1875 C2 14 2 14 0.2890625 12.84375 C-1.55960427 10.19959632 -1.09504607 8.46171963 -0.6875 5.3125 C-0.56761719 4.31863281 -0.44773438 3.32476562 -0.32421875 2.30078125 C-0.21722656 1.54152344 -0.11023438 0.78226562 0 0 Z " fill="#24263C" transform="translate(207,399)"/>
<path d="M0 0 C2 1 2 1 2.703125 2.9609375 C2.88359375 3.75757813 3.0640625 4.55421875 3.25 5.375 C3.53617187 6.56222656 3.53617187 6.56222656 3.828125 7.7734375 C4 10 4 10 2 13 C1.34 13 0.68 13 0 13 C-1.25069801 10.49860398 -1.13302467 8.72607309 -1.125 5.9375 C-1.12757813 5.03902344 -1.13015625 4.14054687 -1.1328125 3.21484375 C-1 1 -1 1 0 0 Z " fill="#E0E2E8" transform="translate(371,354)"/>
<path d="M0 0 C1.65 0.33 3.3 0.66 5 1 C5 3.31 5 5.62 5 8 C6.32 8.33 7.64 8.66 9 9 C6.36 9.33 3.72 9.66 1 10 C1.33 9.01 1.66 8.02 2 7 C1.484375 6.5875 0.96875 6.175 0.4375 5.75 C-0.036875 5.1725 -0.51125 4.595 -1 4 C-0.6875 1.8125 -0.6875 1.8125 0 0 Z " fill="#474C61" transform="translate(306,242)"/>
<path d="M0 0 C0.33 0 0.66 0 1 0 C1 11.22 1 22.44 1 34 C0.67 34 0.34 34 0 34 C-0.33 26.74 -0.66 19.48 -1 12 C-1.33 12 -1.66 12 -2 12 C-1 3.42857143 -1 3.42857143 0 0 Z " fill="#B7BCCA" transform="translate(415,127)"/>
<path d="M0 0 C0.66 0 1.32 0 2 0 C2 6.93 2 13.86 2 21 C1.34 21 0.68 21 0 21 C-0.99440216 16.2710653 -0.96565891 11.90729882 -0.5625 7.125 C-0.51029297 6.43664062 -0.45808594 5.74828125 -0.40429688 5.0390625 C-0.27594902 3.35887242 -0.13887775 1.67935251 0 0 Z " fill="#0C0D1D" transform="translate(236,392)"/>
<path d="M0 0 C0.99 0 1.98 0 3 0 C3 6.93 3 13.86 3 21 C3.99 21.33 4.98 21.66 6 22 C3.03 22 0.06 22 -3 22 C-2.01 21.67 -1.02 21.34 0 21 C0 20.01 0 19.02 0 18 C-0.66 17.67 -1.32 17.34 -2 17 C-0.68 17 0.64 17 2 17 C2 12.05 2 7.1 2 2 C1.34 2 0.68 2 0 2 C0 1.34 0 0.68 0 0 Z " fill="#D4D9E7" transform="translate(285,392)"/>
<path d="M0 0 C0.33 0 0.66 0 1 0 C1.02578125 1.15757812 1.0515625 2.31515625 1.078125 3.5078125 C1.13443349 5.04691128 1.1917802 6.58597233 1.25 8.125 C1.26417969 8.88554687 1.27835937 9.64609375 1.29296875 10.4296875 C1.52573467 15.8298569 2.61913915 18.76716222 6 23 C5.01 22.67 4.02 22.34 3 22 C2.67 21.34 2.34 20.68 2 20 C1.34 19.855625 0.68 19.71125 0 19.5625 C-0.66 19.376875 -1.32 19.19125 -2 19 C-3.231394 15.30581799 -2.64432764 12.7943739 -2 9 C-1.67 9 -1.34 9 -1 9 C-0.67 6.03 -0.34 3.06 0 0 Z " fill="#6E7691" transform="translate(392,244)"/>
<path d="M0 0 C8.08888889 -0.62222222 8.08888889 -0.62222222 11.5625 1.75 C13 4 13 4 13 8 C12.01 8 11.02 8 10 8 C9.76539062 7.36578125 9.53078125 6.7315625 9.2890625 6.078125 C8.17709092 3.81749261 8.17709092 3.81749261 5.8359375 3.171875 C4.61777344 2.96304687 4.61777344 2.96304687 3.375 2.75 C2.55773437 2.60046875 1.74046875 2.4509375 0.8984375 2.296875 C-0.04128906 2.14992188 -0.04128906 2.14992188 -1 2 C-0.67 1.34 -0.34 0.68 0 0 Z " fill="#16182A" transform="translate(100,384)"/>
<path d="M0 0 C0.33 0 0.66 0 1 0 C1 5.28 1 10.56 1 16 C0.34 15.67 -0.32 15.34 -1 15 C-1.625 12.9375 -1.625 12.9375 -2 11 C-3.65 11 -5.3 11 -7 11 C-6.1028125 10.505 -6.1028125 10.505 -5.1875 10 C-2.10071812 7.17779943 -1.23011277 3.92331421 0 0 Z " fill="#262A3F" transform="translate(250,244)"/>
<path d="M0 0 C3.02985373 -0.33665041 4.63672156 -0.20618506 7.3125 1.3125 C10.00135361 5.59474834 9.30567759 10.07519437 9 15 C8.34 15 7.68 15 7 15 C6.81824219 13.98679687 6.81824219 13.98679687 6.6328125 12.953125 C6.46523438 12.06109375 6.29765625 11.1690625 6.125 10.25 C5.88136719 8.92742187 5.88136719 8.92742187 5.6328125 7.578125 C5.0201397 5.08205062 4.39083029 3.15919108 3 1 C2.01 0.67 1.02 0.34 0 0 Z " fill="#181B2D" transform="translate(484,391)"/>
<path d="M0 0 C0.99 0 1.98 0 3 0 C3.33 2.97 3.66 5.94 4 9 C3.67 8.34 3.34 7.68 3 7 C2.443125 7.515625 1.88625 8.03125 1.3125 8.5625 C-1 10 -1 10 -3.75 9.6875 C-4.4925 9.460625 -5.235 9.23375 -6 9 C-5.34 8.01 -4.68 7.02 -4 6 C-4 6.66 -4 7.32 -4 8 C-2.68 6.68 -1.36 5.36 0 4 C-0.66 3.67 -1.32 3.34 -2 3 C-1.34 3 -0.68 3 0 3 C0 2.01 0 1.02 0 0 Z " fill="#30344A" transform="translate(229,252)"/>
<path d="M0 0 C0.33 0 0.66 0 1 0 C1.33 1.65 1.66 3.3 2 5 C2.33 5 2.66 5 3 5 C2.67 9.62 2.34 14.24 2 19 C0 16 0 16 0 14 C-0.66 14 -1.32 14 -2 14 C-2 12.35 -2 10.7 -2 9 C-1.34 9 -0.68 9 0 9 C0 6.03 0 3.06 0 0 Z " fill="#404459" transform="translate(399,342)"/>
<path d="M0 0 C0.33 0 0.66 0 1 0 C2.12862175 5.36095333 2.09688221 10.55306686 2 16 C1.34 15.67 0.68 15.34 0 15 C0 13.02 0 11.04 0 9 C-1.32 9 -2.64 9 -4 9 C-4.33 9.66 -4.66 10.32 -5 11 C-5.66 10.01 -6.32 9.02 -7 8 C-6 7 -6 7 -2.9375 6.9375 C-1.4834375 6.9684375 -1.4834375 6.9684375 0 7 C0 4.69 0 2.38 0 0 Z " fill="#252941" transform="translate(315,244)"/>
<path d="M0 0 C1.32 0 2.64 0 4 0 C4 3.3 4 6.6 4 10 C1 9 1 9 -1 6 C-1.1875 3.375 -1.1875 3.375 -1 1 C-0.67 0.67 -0.34 0.34 0 0 Z " fill="#E8EAF0" transform="translate(323,249)"/>
<path d="M0 0 C1.32 0 2.64 0 4 0 C3.67 2.97 3.34 5.94 3 9 C2.34 9 1.68 9 1 9 C1 11.31 1 13.62 1 16 C0.34 15.67 -0.32 15.34 -1 15 C-0.67 10.05 -0.34 5.1 0 0 Z " fill="#CCD0DC" transform="translate(379,244)"/>
<path d="M0 0 C4.62 0 9.24 0 14 0 C14 0.33 14 0.66 14 1 C9.71 1 5.42 1 1 1 C1 1.66 1 2.32 1 3 C1.66 3 2.32 3 3 3 C3 4.98 3 6.96 3 9 C1.68 9 0.36 9 -1 9 C-0.67 6.03 -0.34 3.06 0 0 Z " fill="#D4D8DF" transform="translate(312,241)"/>
<path d="M0 0 C2.1991413 4.39828259 2.51855059 7.18550592 3 12 C2.34 12 1.68 12 1 12 C1 16.95 1 21.9 1 27 C0.67 27 0.34 27 0 27 C0 18.09 0 9.18 0 0 Z " fill="#CDD1DF" transform="translate(329,346)"/>
<path d="M0 0 C2.1991413 4.39828259 2.51855059 7.18550592 3 12 C2.34 12 1.68 12 1 12 C1 16.95 1 21.9 1 27 C0.67 27 0.34 27 0 27 C0 18.09 0 9.18 0 0 Z " fill="#D5DAE8" transform="translate(44,346)"/>
<path d="M0 0 C0 0.99 0 1.98 0 3 C0.31088368 4.67099977 0.64080332 6.33871537 1 8 C1.99 8.33 2.98 8.66 4 9 C4 9.66 4 10.32 4 11 C1.125 11.1875 1.125 11.1875 -2 11 C-4 8 -4 8 -3.8125 5.5 C-2.95559826 2.86337925 -2.11007147 1.74310252 0 0 Z " fill="#131527" transform="translate(263,402)"/>
<path d="M0 0 C0.33 0 0.66 0 1 0 C2.10228696 4.40914783 2.07654536 8.48382401 2 13 C0.68 13 -0.64 13 -2 13 C-1.85851011 11.3954444 -1.71164314 9.79136233 -1.5625 8.1875 C-1.48128906 7.29417969 -1.40007812 6.40085937 -1.31640625 5.48046875 C-1 3 -1 3 0 0 Z " fill="#D5D9E4" transform="translate(449,343)"/>
<path d="M0 0 C0.33 0 0.66 0 1 0 C1 8.91 1 17.82 1 27 C0.67 27 0.34 27 0 27 C-0.66 23.37 -1.32 19.74 -2 16 C-1.34 16 -0.68 16 0 16 C0 10.72 0 5.44 0 0 Z " fill="#CCD2E0" transform="translate(50,330)"/>
<path d="M0 0 C0.99 0.33 1.98 0.66 3 1 C2.34 1 1.68 1 1 1 C1.66 2.32 2.32 3.64 3 5 C3.66 4.01 4.32 3.02 5 2 C4.51058824 7.50588235 4.51058824 7.50588235 2.0625 9.875 C0 11 0 11 -2 11 C-1.835 10.0925 -1.67 9.185 -1.5 8.25 C-0.89862854 4.88912497 -0.89862854 4.88912497 -1 1 C-0.67 0.67 -0.34 0.34 0 0 Z " fill="#171A30" transform="translate(205,242)"/>
<path d="M0 0 C1.32 0 2.64 0 4 0 C4 0.66 4 1.32 4 2 C3.34 2 2.68 2 2 2 C2 6.95 2 11.9 2 17 C1.67 17 1.34 17 1 17 C0.9175 16.05125 0.835 15.1025 0.75 14.125 C0.34925077 10.89538209 0.34925077 10.89538209 -2.0625 9.625 C-2.701875 9.41875 -3.34125 9.2125 -4 9 C-2.68 9 -1.36 9 0 9 C0 6.03 0 3.06 0 0 Z " fill="#1B1E31" transform="translate(390,242)"/>
<path d="M0 0 C0.99 0.99 1.98 1.98 3 3 C2.67 3.66 2.34 4.32 2 5 C1.34 5 0.68 5 0 5 C-0.88639389 7.65918166 -1.17989025 9.48064641 -1.31640625 12.23046875 C-1.35830078 13.03291016 -1.40019531 13.83535156 -1.44335938 14.66210938 C-1.48267578 15.49548828 -1.52199219 16.32886719 -1.5625 17.1875 C-1.60568359 18.03248047 -1.64886719 18.87746094 -1.69335938 19.74804688 C-1.79931518 21.83184433 -1.9001502 23.91590103 -2 26 C-2.33 26 -2.66 26 -3 26 C-3.08149592 22.97861433 -3.14073421 19.95946095 -3.1875 16.9375 C-3.21263672 16.08994141 -3.23777344 15.24238281 -3.26367188 14.36914062 C-3.32846972 8.7749264 -2.57466587 4.98039041 0 0 Z " fill="#E84041" transform="translate(103,192)"/>
<path d="M0 0 C0.99 0 1.98 0 3 0 C5.49553618 3.74330426 4.70910649 4.74536103 4 9 C4.99 10.485 4.99 10.485 6 12 C3.04590299 10.62845496 0.55991624 9.01136276 -2 7 C-1.67 6.01 -1.34 5.02 -1 4 C0.32 4.66 1.64 5.32 3 6 C2.01 4.02 1.02 2.04 0 0 Z " fill="#2E324C" transform="translate(351,250)"/>
<path d="M0 0 C4.29 0 8.58 0 13 0 C12.67 1.32 12.34 2.64 12 4 C9.38513938 4.96846689 8.1557873 5.04559628 5.4375 4.25 C3 3 3 3 0 0 Z " fill="#D7DBE5" transform="translate(287,244)"/>
<path d="M0 0 C2.86724686 0.57344937 3.8614515 0.8614515 6 3 C6.1953125 5.1640625 6.1953125 5.1640625 6.125 7.625 C6.10695312 8.44226563 6.08890625 9.25953125 6.0703125 10.1015625 C6.03550781 11.04128906 6.03550781 11.04128906 6 12 C5.01 12.495 5.01 12.495 4 13 C3.87882813 12.39671875 3.75765625 11.7934375 3.6328125 11.171875 C3.46523437 10.37265625 3.29765625 9.5734375 3.125 8.75 C2.96257812 7.96109375 2.80015625 7.1721875 2.6328125 6.359375 C2.00849925 4.03168856 1.15161458 2.10968048 0 0 Z " fill="#131527" transform="translate(145,392)"/>
<path d="M0 0 C0.33 0 0.66 0 1 0 C1 8.25 1 16.5 1 25 C-0.80330533 21.39338934 -1.46599103 18.91606575 -2 15 C-1.34 15 -0.68 15 0 15 C0 10.05 0 5.1 0 0 Z " fill="#E2E6F0" transform="translate(435,330)"/>
<path d="M0 0 C0.66 0.33 1.32 0.66 2 1 C3.1577506 4.47325181 3.06866652 7.36067448 3 11 C1.68 11 0.36 11 -1 11 C-0.67 7.37 -0.34 3.74 0 0 Z " fill="#D6D9E3" transform="translate(415,345)"/>
<path d="M0 0 C0.33 0 0.66 0 1 0 C1 7.59 1 15.18 1 23 C-0.95216435 19.09567131 -1.50639991 16.27786748 -2 12 C-1.34 12 -0.68 12 0 12 C0 8.04 0 4.08 0 0 Z " fill="#DADFE7" transform="translate(335,334)"/>
<path d="M0 0 C4.62 0 9.24 0 14 0 C13.67 0.66 13.34 1.32 13 2 C10.03 2 7.06 2 4 2 C4 3.98 4 5.96 4 8 C3.67 8 3.34 8 3 8 C3 6.02 3 4.04 3 2 C2.01 2 1.02 2 0 2 C0 1.34 0 0.68 0 0 Z " fill="#0C0F20" transform="translate(313,242)"/>
<path d="M0 0 C1.32 0 2.64 0 4 0 C4.05383848 2.45862401 4.09359038 4.9160755 4.125 7.375 C4.14175781 8.07367188 4.15851563 8.77234375 4.17578125 9.4921875 C4.19344267 11.32897486 4.10303261 13.16601963 4 15 C3.34 15.66 2.68 16.32 2 17 C1.67 14.36 1.34 11.72 1 9 C1.33 9 1.66 9 2 9 C2.33 6.36 2.66 3.72 3 1 C2.34 1 1.68 1 1 1 C0.67 1.66 0.34 2.32 0 3 C0 2.01 0 1.02 0 0 Z " fill="#DADDE5" transform="translate(231,244)"/>
<path d="M0 0 C-0.33 3.63 -0.66 7.26 -1 11 C-4 8 -4 8 -4.1875 4.3125 C-4.125625 3.219375 -4.06375 2.12625 -4 1 C-2 0 -2 0 0 0 Z " fill="#2A2D41" transform="translate(415,345)"/>
<path d="M0 0 C0.33 0 0.66 0 1 0 C1.33 5.28 1.66 10.56 2 16 C1.34 16 0.68 16 0 16 C0 17.65 0 19.3 0 21 C-0.33 21 -0.66 21 -1 21 C-1.13794954 13.93391809 -0.74805717 7.02639415 0 0 Z " fill="#31354A" transform="translate(498,335)"/>
<path d="M0 0 C0 5.28 0 10.56 0 16 C-0.33 16 -0.66 16 -1 16 C-1.33 12.37 -1.66 8.74 -2 5 C-3.98 5.99 -3.98 5.99 -6 7 C-2.86206897 0 -2.86206897 0 0 0 Z " fill="#E92121" transform="translate(98,154)"/>
<path d="M0 0 C-0.33 0.99 -0.66 1.98 -1 3 C-1 2.34 -1 1.68 -1 1 C-2.11375 1.165 -3.2275 1.33 -4.375 1.5 C-8 2 -8 2 -10 2 C-10.99 2.66 -11.98 3.32 -13 4 C-11.96508351 1.17750049 -11.30084735 0.16625774 -8.625 -1.3125 C-5.06895335 -2.24384555 -3.20817677 -1.60408838 0 0 Z " fill="#272A40" transform="translate(272,402)"/>
<path d="M0 0 C0.99 0.33 1.98 0.66 3 1 C4.11658501 5.68965706 3.80619523 8.53763531 2 13 C1.67 13 1.34 13 1 13 C0.67 8.71 0.34 4.42 0 0 Z " fill="#2B2F46" transform="translate(393,340)"/>
<path d="M0 0 C1.65 0 3.3 0 5 0 C5 2.97 5 5.94 5 9 C4.34 8.34 3.68 7.68 3 7 C2.01 7.66 1.02 8.32 0 9 C0.185625 8.071875 0.37125 7.14375 0.5625 6.1875 C1.24123881 2.98656229 1.24123881 2.98656229 0 0 Z " fill="#B9BDCB" transform="translate(354,250)"/>
<path d="M0 0 C0.87840996 3.09720845 0.99435406 4.90645403 0 8 C0.66 8.33 1.32 8.66 2 9 C0.35 10.98 -1.3 12.96 -3 15 C-4.28497537 11.14507389 -3.4052209 9.59653164 -2.0625 5.8125 C-1.68222656 4.72582031 -1.30195312 3.63914062 -0.91015625 2.51953125 C-0.60980469 1.68808594 -0.30945313 0.85664062 0 0 Z " fill="#F4B9B6" transform="translate(87,103)"/>
<path d="M0 0 C0.66 0.33 1.32 0.66 2 1 C0.52307692 5.67692308 0.52307692 5.67692308 -2.125 7.3125 C-2.74375 7.539375 -3.3625 7.76625 -4 8 C-4 7.34 -4 6.68 -4 6 C-5.32 5.67 -6.64 5.34 -8 5 C-6.8553125 4.87625 -6.8553125 4.87625 -5.6875 4.75 C-2.47626739 3.85384206 -1.70625501 2.78388975 0 0 Z " fill="#282B3F" transform="translate(131,405)"/>
<path d="M0 0 C5.47826087 -0.36521739 5.47826087 -0.36521739 7.875 1.3125 C9 3 9 3 9 6 C8.01 6 7.02 6 6 6 C5.34 5.01 4.68 4.02 4 3 C1.43717258 2.27034634 1.43717258 2.27034634 -1 2 C-0.67 1.34 -0.34 0.68 0 0 Z " fill="#16192B" transform="translate(248,392)"/>
<path d="M0 0 C0.99 0.33 1.98 0.66 3 1 C2.67 3.31 2.34 5.62 2 8 C1.01 8 0.02 8 -1 8 C-1.04241723 5.66705225 -1.04092937 3.33297433 -1 1 C-0.67 0.67 -0.34 0.34 0 0 Z " fill="#282B3C" transform="translate(409,365)"/>
<path d="M0 0 C2.31 0 4.62 0 7 0 C7.66 1.65 8.32 3.3 9 5 C5.58978257 4.21302675 2.31114834 3.12880057 -1 2 C-0.67 1.34 -0.34 0.68 0 0 Z " fill="#1C1E32" transform="translate(501,392)"/>
<path d="M0 0 C3.63 0 7.26 0 11 0 C11 0.66 11 1.32 11 2 C9.35 2 7.7 2 6 2 C6 3.98 6 5.96 6 8 C5.67 8 5.34 8 5 8 C5 6.02 5 4.04 5 2 C3.35 1.67 1.7 1.34 0 1 C0 0.67 0 0.34 0 0 Z " fill="#0C0E1E" transform="translate(379,242)"/>
<path d="M0 0 C0.99 0.33 1.98 0.66 3 1 C2.79375 2.0725 2.5875 3.145 2.375 4.25 C2.0123809 7.87619096 2.01637931 9.08291076 4 12 C1 11 1 11 -0.1875 9.3125 C-1.20201728 6.42502774 -1.20260309 4.03904628 -1 1 C-0.67 0.67 -0.34 0.34 0 0 Z " fill="#2C3049" transform="translate(321,247)"/>
<path d="M0 0 C0.66 0.33 1.32 0.66 2 1 C2 1.99 2 2.98 2 4 C0.02 4 -1.96 4 -4 4 C-4.33 4.99 -4.66 5.98 -5 7 C-5.33 5.68 -5.66 4.36 -6 3 C-4.03533587 1.93224776 -2.03144641 0.93446535 0 0 Z " fill="#272A3F" transform="translate(229,244)"/>
<path d="M0 0 C1.32 1.32 2.64 2.64 4 4 C4.33 3.34 4.66 2.68 5 2 C5 3.98 5 5.96 5 8 C3.02 8.99 3.02 8.99 1 10 C1.04125 9.2575 1.0825 8.515 1.125 7.75 C0.99601866 4.91241048 0.42948778 3.41226062 -1 1 C-0.67 0.67 -0.34 0.34 0 0 Z " fill="#888C9F" transform="translate(224,250)"/>
<path d="M0 0 C1.32 0.66 2.64 1.32 4 2 C3.01 2.66 2.02 3.32 1 4 C0.41407366 7.11610554 0.41407366 7.11610554 0.3125 10.625 C0.24675781 11.81351563 0.18101562 13.00203125 0.11328125 14.2265625 C0.07589844 15.14179687 0.03851563 16.05703125 0 17 C-0.33 17 -0.66 17 -1 17 C-1.02691685 14.54159395 -1.04679802 12.08348118 -1.0625 9.625 C-1.07087891 8.92632812 -1.07925781 8.22765625 -1.08789062 7.5078125 C-1.11328125 2.2265625 -1.11328125 2.2265625 0 0 Z " fill="#EB262A" transform="translate(502,78)"/>
<path d="M0 0 C0.99 0 1.98 0 3 0 C3.29296875 6.0546875 3.29296875 6.0546875 3 8 C2.01 8.66 1.02 9.32 0 10 C0 6.7 0 3.4 0 0 Z " fill="#26293E" transform="translate(334,409)"/>
<path d="M0 0 C0.1875 3.375 0.1875 3.375 0 7 C-0.99 7.66 -1.98 8.32 -3 9 C-2.67 7.35 -2.34 5.7 -2 4 C-3.32 3.67 -4.64 3.34 -6 3 C-2.25 0 -2.25 0 0 0 Z " fill="#0C0E20" transform="translate(274,398)"/>
<path d="M0 0 C-0.61875 0.2475 -1.2375 0.495 -1.875 0.75 C-4.35068687 2.20628639 -4.95125002 3.37812506 -6 6 C-6.66 6 -7.32 6 -8 6 C-8.66 6.99 -9.32 7.98 -10 9 C-9.65544802 5.89903219 -9.15182706 4.20062862 -7.25 1.6875 C-4.58761061 -0.30929204 -3.25047681 -0.36116409 0 0 Z " fill="#2B2E42" transform="translate(127,391)"/>
<path d="M0 0 C1.65 0.33 3.3 0.66 5 1 C4.34 2.32 3.68 3.64 3 5 C1.68 4.67 0.36 4.34 -1 4 C-0.67 2.68 -0.34 1.36 0 0 Z " fill="#E0E3EA" transform="translate(243,249)"/>
<path d="M0 0 C1.32 0 2.64 0 4 0 C4 1.98 4 3.96 4 6 C2.68 6 1.36 6 0 6 C0 4.02 0 2.04 0 0 Z " fill="#F6F8F9" transform="translate(386,244)"/>
<path d="M0 0 C0 2 0 2 -1.6796875 3.7265625 C-2.40414062 4.35304688 -3.12859375 4.97953125 -3.875 5.625 C-4.59429687 6.25664063 -5.31359375 6.88828125 -6.0546875 7.5390625 C-8 9 -8 9 -10 9 C-8.5124715 4.98367305 -4.56813239 0 0 0 Z " fill="#EC292C" transform="translate(89,78)"/>
<path d="M0 0 C0.99 0.33 1.98 0.66 3 1 C3 3.31 3 5.62 3 8 C2.01 8 1.02 8 0 8 C0 5.36 0 2.72 0 0 Z " fill="#CCCED8" transform="translate(411,398)"/>
<path d="M0 0 C1.37058195 4.11174586 0.75640862 6.73660595 0 11 C-0.99 11.495 -0.99 11.495 -2 12 C-2.05395478 10.37536158 -2.09277195 8.75021459 -2.125 7.125 C-2.14820313 6.22007812 -2.17140625 5.31515625 -2.1953125 4.3828125 C-2 2 -2 2 0 0 Z " fill="#0E1021" transform="translate(379,396)"/>
<path d="M0 0 C1.4540625 0.0309375 1.4540625 0.0309375 2.9375 0.0625 C-1.6875 4.9375 -1.6875 4.9375 -5.0625 6.0625 C-3.98897059 0.08140756 -3.98897059 0.08140756 0 0 Z " fill="#181B2D" transform="translate(265.0625,391.9375)"/>
<path d="M0 0 C0.33 0.99 0.66 1.98 1 3 C-1 5 -1 5 -4.625 5.125 C-5.73875 5.08375 -6.8525 5.0425 -8 5 C-6.37633534 1.75267068 -3.24612161 1.29844864 0 0 Z " fill="#121425" transform="translate(472,408)"/>
<path d="M0 0 C0.391875 0.474375 0.78375 0.94875 1.1875 1.4375 C3.40808374 3.35179633 5.13375709 3.61266988 8 4 C5.35261084 5.4606285 4.10551666 6 1 6 C-0.0625 4.125 -0.0625 4.125 -1 2 C-0.67 1.34 -0.34 0.68 0 0 Z " fill="#26293D" transform="translate(461,406)"/>
<path d="M0 0 C1.4540625 0.0309375 1.4540625 0.0309375 2.9375 0.0625 C0.10319547 3.3167015 -1.74857774 4.5831753 -6.0625 5.0625 C-3.64893617 0.07446809 -3.64893617 0.07446809 0 0 Z " fill="#16182A" transform="translate(360.0625,383.9375)"/>
<path d="M0 0 C0.33 0 0.66 0 1 0 C1 2.31 1 4.62 1 7 C2.32 7.33 3.64 7.66 5 8 C3.02 8 1.04 8 -1 8 C-1.33 9.32 -1.66 10.64 -2 12 C-2 9.69 -2 7.38 -2 5 C-1.34 5 -0.68 5 0 5 C0 3.35 0 1.7 0 0 Z " fill="#BDC1D0" transform="translate(71,330)"/>
<path d="M0 0 C0.99 0.99 1.98 1.98 3 3 C2.67 3.33 2.34 3.66 2 4 C1.76472227 6.34987262 1.58613583 8.70556039 1.4375 11.0625 C1.35371094 12.35285156 1.26992188 13.64320313 1.18359375 14.97265625 C1.12300781 15.97167969 1.06242187 16.97070312 1 18 C0.67 18 0.34 18 0 18 C0 12.06 0 6.12 0 0 Z " fill="#E81E20" transform="translate(493,154)"/>
<path d="M0 0 C1.32 0.33 2.64 0.66 4 1 C2.7934375 1.7734375 2.7934375 1.7734375 1.5625 2.5625 C-1.66447078 5.63205757 -1.74896257 7.64868459 -2 12 C-2.33 12 -2.66 12 -3 12 C-3.36923077 4.61538462 -3.36923077 4.61538462 -1.5 1.5 C-1.005 1.005 -0.51 0.51 0 0 Z " fill="#BDC2D0" transform="translate(401,394)"/>
<path d="M0 0 C1.32 0.33 2.64 0.66 4 1 C2.7934375 1.7734375 2.7934375 1.7734375 1.5625 2.5625 C-1.66447078 5.63205757 -1.74896257 7.64868459 -2 12 C-2.33 12 -2.66 12 -3 12 C-3.36923077 4.61538462 -3.36923077 4.61538462 -1.5 1.5 C-1.005 1.005 -0.51 0.51 0 0 Z " fill="#C4C9D8" transform="translate(160,394)"/>
<path d="M0 0 C0.99 0.33 1.98 0.66 3 1 C2.67 3.31 2.34 5.62 2 8 C1.34 8 0.68 8 0 8 C0 5.36 0 2.72 0 0 Z " fill="#D5D9E3" transform="translate(372,335)"/>
<path d="M0 0 C-1.98 0.99 -3.96 1.98 -6 3 C-6 3.66 -6 4.32 -6 5 C-7.65 4.67 -9.3 4.34 -11 4 C-11 3.34 -11 2.68 -11 2 C-9.54494642 1.47007308 -8.08581873 0.9513211 -6.625 0.4375 C-5.81289063 0.14746094 -5.00078125 -0.14257812 -4.1640625 -0.44140625 C-2 -1 -2 -1 0 0 Z " fill="#EA3336" transform="translate(388,277)"/>
<path d="M0 0 C4 1 4 1 5.25 3.0625 C5.4975 3.701875 5.745 4.34125 6 5 C5.01 5.495 5.01 5.495 4 6 C3.67 6.99 3.34 7.98 3 9 C2.01 6.03 1.02 3.06 0 0 Z " fill="#EA3C3F" transform="translate(57,200)"/>
<path d="M0 0 C2.66666667 0.66666667 5.33333333 1.33333333 8 2 C8 2.66 8 3.32 8 4 C6.02 4 4.04 4 2 4 C1.34 2.68 0.68 1.36 0 0 Z " fill="#111324" transform="translate(119,409)"/>
<path d="M0 0 C0.78375 0.04125 1.5675 0.0825 2.375 0.125 C1.75625 0.558125 1.1375 0.99125 0.5 1.4375 C-1.8447245 3.12240483 -1.8447245 3.12240483 -3.625 6.125 C-4.615 6.455 -5.605 6.785 -6.625 7.125 C-4.07142857 0.19387755 -4.07142857 0.19387755 0 0 Z " fill="#2D3045" transform="translate(211.625,390.875)"/>
<path d="M0 0 C2.64 0.33 5.28 0.66 8 1 C7.34 1.66 6.68 2.32 6 3 C6.33 3.99 6.66 4.98 7 6 C3.63279613 4.60667426 2.0140476 3.0210714 0 0 Z " fill="#EA2023" transform="translate(117,279)"/>
<path d="M0 0 C3.3 0 6.6 0 10 0 C9.67 0.66 9.34 1.32 9 2 C8.2575 1.95875 7.515 1.9175 6.75 1.875 C3.91241048 2.00398134 2.41226062 2.57051222 0 4 C0 2.68 0 1.36 0 0 Z " fill="#F9FBFA" transform="translate(238,245)"/>
<path d="M0 0 C0.33 0 0.66 0 1 0 C1.33 1.65 1.66 3.3 2 5 C2.33 5 2.66 5 3 5 C3 7.64 3 10.28 3 13 C2.67 13 2.34 13 2 13 C1.67 11.35 1.34 9.7 1 8 C0.34 8 -0.32 8 -1 8 C-0.67 5.36 -0.34 2.72 0 0 Z " fill="#4E526B" transform="translate(501,350)"/>
<path d="M0 0 C2.25 0.125 2.25 0.125 5 1 C7.3125 4.0625 7.3125 4.0625 9 7 C8.01 6.67 7.02 6.34 6 6 C5.67 5.34 5.34 4.68 5 4 C4.01 3.7834375 4.01 3.7834375 3 3.5625 C2.34 3.376875 1.68 3.19125 1 3 C0.67 2.01 0.34 1.02 0 0 Z " fill="#454860" transform="translate(389,260)"/>
<path d="M0 0 C0.33 0 0.66 0 1 0 C1 2.97 1 5.94 1 9 C0.34 7.68 -0.32 6.36 -1 5 C-2.65 5 -4.3 5 -6 5 C-2.25 2 -2.25 2 0 2 C0 1.34 0 0.68 0 0 Z " fill="#14162A" transform="translate(249,250)"/>
<path d="M0 0 C1.4540625 0.0309375 1.4540625 0.0309375 2.9375 0.0625 C2.9375 0.3925 2.9375 0.7225 2.9375 1.0625 C1.2875 1.3925 -0.3625 1.7225 -2.0625 2.0625 C-2.3925 3.7125 -2.7225 5.3625 -3.0625 7.0625 C-4.0525 6.4025 -5.0425 5.7425 -6.0625 5.0625 C-3.64893617 0.07446809 -3.64893617 0.07446809 0 0 Z " fill="#32354A" transform="translate(503.0625,390.9375)"/>
<path d="M0 0 C0.33 0 0.66 0 1 0 C1.268125 0.9075 1.53625 1.815 1.8125 2.75 C2.89576294 5.71471963 3.98359457 7.6169754 6 10 C4.1875 9.8125 4.1875 9.8125 2 9 C0.1875 6.6875 0.1875 6.6875 -1 4 C-0.6875 1.6875 -0.6875 1.6875 0 0 Z " fill="#575D76" transform="translate(290,250)"/>
<path d="M0 0 C1.32 0.66 2.64 1.32 4 2 C2.68 2.99 1.36 3.98 0 5 C-1.32 4.34 -2.64 3.68 -4 3 C-2.68 2.01 -1.36 1.02 0 0 Z " fill="#DDE1E9" transform="translate(207,250)"/>
<path d="M0 0 C0.33 0 0.66 0 1 0 C1.625 3.375 1.625 3.375 2 7 C1.34 7.66 0.68 8.32 0 9 C-1 8 -1 8 -1.125 4.5 C-1 1 -1 1 0 0 Z " fill="#0D0F20" transform="translate(460,399)"/>
<path d="M0 0 C0.99 0.33 1.98 0.66 3 1 C3 2.98 3 4.96 3 7 C1.68 6.34 0.36 5.68 -1 5 C-0.67 3.35 -0.34 1.7 0 0 Z " fill="#363A50" transform="translate(377,352)"/>
<path d="M0 0 C-5.75 3 -5.75 3 -8 3 C-8.33 2.01 -8.66 1.02 -9 0 C-5.62182575 -0.84454356 -3.32534757 -1.10844919 0 0 Z " fill="#F9D7D4" transform="translate(287,286)"/>
<path d="M0 0 C0.33 0.66 0.66 1.32 1 2 C-0.91522803 6.03205902 -1.85351878 6.92675939 -6 9 C-4.02 6.03 -2.04 3.06 0 0 Z " fill="#F9DDDA" transform="translate(456,254)"/>
<path d="M0 0 C0.99 0.33 1.98 0.66 3 1 C2.34 1 1.68 1 1 1 C1.20625 1.78375 1.4125 2.5675 1.625 3.375 C1.810625 4.674375 1.810625 4.674375 2 6 C1.34 6.66 0.68 7.32 0 8 C-0.66 6.02 -1.32 4.04 -2 2 C-1.34 1.34 -0.68 0.68 0 0 Z " fill="#383C53" transform="translate(205,242)"/>
<path d="M0 0 C0.99 0 1.98 0 3 0 C3.99 2.64 4.98 5.28 6 8 C5.01 8.495 5.01 8.495 4 9 C3.67 7.02 3.34 5.04 3 3 C2.01 2.67 1.02 2.34 0 2 C0 1.34 0 0.68 0 0 Z " fill="#454962" transform="translate(322,233)"/>
</svg>
